<svg xmlns="http://www.w3.org/2000/svg" xmlns:xlink="http://www.w3.org/1999/xlink" width="1000" height="700" version="1.1">
<style type="text/css">
.l0{
 fill: #000000;
  stroke: #000000;
  stroke-linecap:round;
  stroke-linejoin:round;
  stroke-width: 2.619;
}
.l1{
 fill: #00ccee;
  stroke: #00ccee;
  stroke-linecap:round;
  stroke-linejoin:round;
  stroke-width: 2.619;
}
.l2{
  fill: none;
  stroke: #4f4f4f;
  stroke-linecap:round;
  stroke-linejoin:round;
  stroke-width: 2.619;
}
.l3{
 fill: #cccccc; fill-opacity: 0.5;
  stroke: #cccccc;
  stroke-linecap:round;
  stroke-linejoin:round;
  stroke-width: 2.619;
}
.l4{
 fill: #88dd00;
  stroke: #88dd00;
  stroke-linecap:round;
  stroke-linejoin:round;
  stroke-width: 2.619;
}
.l5{
 fill: #bb2200;
  stroke: #bb2200;
  stroke-linecap:round;
  stroke-linejoin:round;
  stroke-width: 2.619;
}
.l6{
 fill: #00ccee; fill-opacity: 0.5;
  stroke: #00ccee;
  stroke-linecap:round;
  stroke-linejoin:round;
  stroke-width: 2.619;
}
.l7{
 fill: #ff0000; fill-opacity: 0.5;
  stroke: #ff0000;
  stroke-linecap:round;
  stroke-linejoin:round;
  stroke-width: 2.619;
}
.l8{
 fill: #ffff00; fill-opacity: 0.5;
  stroke: #ffff00;
  stroke-linecap:round;
  stroke-linejoin:round;
  stroke-width: 2.619;
}
.l9{
 fill: #ffffff; fill-opacity: 0.5;
  stroke: #ffffff;
  stroke-linecap:round;
  stroke-linejoin:round;
  stroke-width: 2.619;
}
.l10{
 fill: #ff00ff;
  stroke: #ff00ff;
  stroke-linecap:round;
  stroke-linejoin:round;
  stroke-width: 2.619;
}
.l11{
 fill: #00ff00; fill-opacity: 0.5;
  stroke: #00ff00;
  stroke-linecap:round;
  stroke-linejoin:round;
  stroke-width: 2.619;
}
.l12{
 fill: #0044dd; fill-opacity: 0.5;
  stroke: #0044dd;
  stroke-linecap:round;
  stroke-linejoin:round;
  stroke-width: 2.619;
}
.l13{
 fill: #aaaa00; fill-opacity: 0.5;
  stroke: #aaaa00;
  stroke-linecap:round;
  stroke-linejoin:round;
  stroke-width: 2.619;
}
.l14{
  fill: none;
  stroke: #aaccaa;
  stroke-linecap:round;
  stroke-linejoin:round;
  stroke-width: 2.619;
}
.l15{
 fill: #ff7777; fill-opacity: 0.5;
  stroke: #ff7777;
  stroke-linecap:round;
  stroke-linejoin:round;
  stroke-width: 2.619;
}
.l16{
 fill: #bfff81; fill-opacity: 0.5;
  stroke: #bfff81;
  stroke-linecap:round;
  stroke-linejoin:round;
  stroke-width: 2.619;
}
.l17{
  fill: none;
  stroke: #00ffcc;
  stroke-linecap:round;
  stroke-linejoin:round;
  stroke-width: 2.619;
}
.l18{
 fill: #ce0097; fill-opacity: 0.5;
  stroke: #ce0097;
  stroke-linecap:round;
  stroke-linejoin:round;
  stroke-width: 2.619;
}
.l19{
  fill: none;
  stroke: #d2d46b;
  stroke-linecap:round;
  stroke-linejoin:round;
  stroke-width: 2.619;
}
.l20{
  fill: none;
  stroke: #ef6158;
  stroke-linecap:round;
  stroke-linejoin:round;
  stroke-width: 2.619;
}
.l21{
  fill: none;
  stroke: #fdb200;
  stroke-linecap:round;
  stroke-linejoin:round;
  stroke-width: 2.619;
}
text {font-family: Sans-Serif;}
</style>
<rect class="l0" x="0" y="0" width="1000" height="700"/>
<text fill="#cccccc"  xml:space="preserve" font-size="37.83" transform="translate(336.312, 369.8)" >@symname</text>
<text fill="#cccccc"  xml:space="preserve" font-size="25.22" transform="translate(827.375, 4.29976)" >@name</text>
<text fill="#cccccc"  xml:space="preserve" font-size="25.22" transform="translate(196.875, 96.4498)" >dvdd</text>
<text fill="#cccccc"  xml:space="preserve" font-size="25.22" transform="translate(196.875, 678.45)" >vss</text>
<text fill="#cccccc"  xml:space="preserve" font-size="25.22" transform="translate(196.875, 629.95)" >dvss</text>
<text fill="#cccccc"  xml:space="preserve" font-size="25.22" transform="translate(196.875, 47.9498)" >vdd</text>
<text fill="#cccccc"  xml:space="preserve" font-size="25.22" transform="translate(196.875, 193.45)" >b0</text>
<text fill="#cccccc"  xml:space="preserve" font-size="25.22" transform="translate(777.625, 47.9498)" >Vhigh</text>
<text fill="#cccccc"  xml:space="preserve" font-size="25.22" transform="translate(196.875, 241.95)" >b1</text>
<text fill="#cccccc"  xml:space="preserve" font-size="25.22" transform="translate(196.875, 290.45)" >b2</text>
<text fill="#cccccc"  xml:space="preserve" font-size="25.22" transform="translate(196.875, 338.95)" >b3</text>
<text fill="#cccccc"  xml:space="preserve" font-size="25.22" transform="translate(787.825, 363.2)" >out</text>
<text fill="#cccccc"  xml:space="preserve" font-size="25.22" transform="translate(196.875, 387.45)" >b4</text>
<text fill="#cccccc"  xml:space="preserve" font-size="25.22" transform="translate(196.875, 435.95)" >b5</text>
<text fill="#cccccc"  xml:space="preserve" font-size="25.22" transform="translate(196.875, 144.95)" >ena</text>
<text fill="#cccccc"  xml:space="preserve" font-size="25.22" transform="translate(196.875, 484.45)" >b6</text>
<text fill="#cccccc"  xml:space="preserve" font-size="25.22" transform="translate(196.875, 532.95)" >b7</text>
<text fill="#cccccc"  xml:space="preserve" font-size="25.22" transform="translate(782.725, 678.45)" >Vlow</text>
<path class="l4" d="M184.75 10.5L815.25 10.5"/>
<path class="l4" d="M184.75 689.5L815.25 689.5"/>
<path class="l4" d="M184.75 10.5L184.75 689.5"/>
<path class="l4" d="M815.25 10.5L815.25 689.5"/>
<path class="l4" d="M136.25 83.25L184.75 83.25"/>
<path class="l4" d="M136.25 665.25L184.75 665.25"/>
<path class="l4" d="M136.25 616.75L184.75 616.75"/>
<path class="l4" d="M136.25 34.75L184.75 34.75"/>
<path class="l4" d="M136.25 180.25L184.75 180.25"/>
<path class="l4" d="M815.25 34.75L863.75 34.75"/>
<path class="l4" d="M136.25 228.75L184.75 228.75"/>
<path class="l4" d="M136.25 277.25L184.75 277.25"/>
<path class="l4" d="M136.25 325.75L184.75 325.75"/>
<path class="l4" d="M815.25 350L863.75 350"/>
<path class="l4" d="M136.25 374.25L184.75 374.25"/>
<path class="l4" d="M136.25 422.75L184.75 422.75"/>
<path class="l4" d="M136.25 131.75L184.75 131.75"/>
<path class="l4" d="M136.25 471.25L184.75 471.25"/>
<path class="l4" d="M136.25 519.75L184.75 519.75"/>
<path class="l4" d="M815.25 665.25L863.75 665.25"/>
<path class="l5" d="M130.188 77.1875L142.312 77.1875L142.312 89.3125L130.188 89.3125L130.188 77.1875z"/>
<path class="l5" d="M130.188 659.188L142.312 659.188L142.312 671.312L130.188 671.312L130.188 659.188z"/>
<path class="l5" d="M130.188 610.688L142.312 610.688L142.312 622.812L130.188 622.812L130.188 610.688z"/>
<path class="l5" d="M130.188 28.6875L142.312 28.6875L142.312 40.8125L130.188 40.8125L130.188 28.6875z"/>
<path class="l5" d="M130.188 174.187L142.312 174.187L142.312 186.312L130.188 186.312L130.188 174.187z"/>
<path class="l5" d="M857.688 28.6875L869.812 28.6875L869.812 40.8125L857.688 40.8125L857.688 28.6875z"/>
<path class="l5" d="M130.188 222.687L142.312 222.687L142.312 234.812L130.188 234.812L130.188 222.687z"/>
<path class="l5" d="M130.188 271.188L142.312 271.188L142.312 283.312L130.188 283.312L130.188 271.188z"/>
<path class="l5" d="M130.188 319.688L142.312 319.688L142.312 331.812L130.188 331.812L130.188 319.688z"/>
<path class="l5" d="M857.688 343.938L869.812 343.938L869.812 356.062L857.688 356.062L857.688 343.938z"/>
<path class="l5" d="M130.188 368.187L142.312 368.187L142.312 380.312L130.188 380.312L130.188 368.187z"/>
<path class="l5" d="M130.188 416.687L142.312 416.687L142.312 428.812L130.188 428.812L130.188 416.687z"/>
<path class="l5" d="M130.188 125.687L142.312 125.687L142.312 137.812L130.188 137.812L130.188 125.687z"/>
<path class="l5" d="M130.188 465.187L142.312 465.187L142.312 477.312L130.188 477.312L130.188 465.187z"/>
<path class="l5" d="M130.188 513.688L142.312 513.688L142.312 525.812L130.188 525.812L130.188 513.688z"/>
<path class="l5" d="M857.688 659.188L869.812 659.188L869.812 671.312L857.688 671.312L857.688 659.188z"/>
</svg>
