<svg xmlns="http://www.w3.org/2000/svg" xmlns:xlink="http://www.w3.org/1999/xlink" width="1000" height="700" version="1.1">
<style type="text/css">
.l0{
  fill: #000000;
  stroke: #000000;
  stroke-linecap:round;
  stroke-linejoin:round;
  stroke-width: 0.417563;
}
.l1{
  fill: #00ccee;
  stroke: #00ccee;
  stroke-linecap:round;
  stroke-linejoin:round;
  stroke-width: 0.417563;
}
.l2{
  fill: #4f4f4f; fill-opacity: 0.2;
  stroke: #4f4f4f;
  stroke-linecap:round;
  stroke-linejoin:round;
  stroke-width: 0.417563;
}
.l3{
  fill: #cccccc; fill-opacity: 0.5;
  stroke: #cccccc;
  stroke-linecap:round;
  stroke-linejoin:round;
  stroke-width: 0.417563;
}
.l4{
  fill: #88dd00;
  stroke: #88dd00;
  stroke-linecap:round;
  stroke-linejoin:round;
  stroke-width: 0.417563;
}
.l5{
  fill: #bb2200;
  stroke: #bb2200;
  stroke-linecap:round;
  stroke-linejoin:round;
  stroke-width: 0.417563;
}
.l6{
  fill: #00ccee; fill-opacity: 0.5;
  stroke: #00ccee;
  stroke-linecap:round;
  stroke-linejoin:round;
  stroke-width: 0.417563;
}
.l7{
  fill: #ff0000; fill-opacity: 0.5;
  stroke: #ff0000;
  stroke-linecap:round;
  stroke-linejoin:round;
  stroke-width: 0.417563;
}
.l8{
  fill: #ffff00; fill-opacity: 0.5;
  stroke: #ffff00;
  stroke-linecap:round;
  stroke-linejoin:round;
  stroke-width: 0.417563;
}
.l9{
  fill: #ffffff; fill-opacity: 0.5;
  stroke: #ffffff;
  stroke-linecap:round;
  stroke-linejoin:round;
  stroke-width: 0.417563;
}
.l10{
  fill: #ff00ff;
  stroke: #ff00ff;
  stroke-linecap:round;
  stroke-linejoin:round;
  stroke-width: 0.417563;
}
.l11{
  fill: #00ff00; fill-opacity: 0.5;
  stroke: #00ff00;
  stroke-linecap:round;
  stroke-linejoin:round;
  stroke-width: 0.417563;
}
.l12{
  fill: #0000ff; fill-opacity: 0.5;
  stroke: #0000ff;
  stroke-linecap:round;
  stroke-linejoin:round;
  stroke-width: 0.417563;
}
.l13{
  fill: #aaaa00; fill-opacity: 0.5;
  stroke: #aaaa00;
  stroke-linecap:round;
  stroke-linejoin:round;
  stroke-width: 0.417563;
}
.l14{
  fill: #aaccaa; fill-opacity: 0.2;
  stroke: #aaccaa;
  stroke-linecap:round;
  stroke-linejoin:round;
  stroke-width: 0.417563;
}
.l15{
  fill: #ff7777; fill-opacity: 0.5;
  stroke: #ff7777;
  stroke-linecap:round;
  stroke-linejoin:round;
  stroke-width: 0.417563;
}
.l16{
  fill: #bfff81; fill-opacity: 0.5;
  stroke: #bfff81;
  stroke-linecap:round;
  stroke-linejoin:round;
  stroke-width: 0.417563;
}
.l17{
  fill: #00ffcc; fill-opacity: 0.2;
  stroke: #00ffcc;
  stroke-linecap:round;
  stroke-linejoin:round;
  stroke-width: 0.417563;
}
.l18{
  fill: #ce0097; fill-opacity: 0.5;
  stroke: #ce0097;
  stroke-linecap:round;
  stroke-linejoin:round;
  stroke-width: 0.417563;
}
.l19{
  fill: #d2d46b; fill-opacity: 0.2;
  stroke: #d2d46b;
  stroke-linecap:round;
  stroke-linejoin:round;
  stroke-width: 0.417563;
}
.l20{
  fill: #ef6158; fill-opacity: 0.2;
  stroke: #ef6158;
  stroke-linecap:round;
  stroke-linejoin:round;
  stroke-width: 0.417563;
}
.l21{
  fill: #fdb200; fill-opacity: 0.2;
  stroke: #fdb200;
  stroke-linecap:round;
  stroke-linejoin:round;
  stroke-width: 0.417563;
}
text {font-family: Sans-Serif;}
</style>
<rect class="l0" x="0" y="0" width="1000" height="700"/>
<text fill="#00ccee"  xml:space="preserve" font-size="6.63461" transform="translate(974.561, 292.592)" >out</text>
<text fill="#00ccee"  xml:space="preserve" font-size="6.63461" transform="translate(289.015, 102.901)" >vss</text>
<text fill="#00ccee"  xml:space="preserve" font-size="6.63461" transform="translate(287.015, 114.5)" >vdd</text>
<text fill="#00ccee"  xml:space="preserve" font-size="6.63461" transform="translate(603.334, 199.559)" >Vhigh</text>
<text fill="#00ccee"  xml:space="preserve" font-size="6.63461" transform="translate(607.2, 501.132)" >Vlow</text>
<text fill="#00ccee"  xml:space="preserve" font-size="6.63461" transform="translate(271.456, 215.508)" >b7a</text>
<text fill="#00ccee"  xml:space="preserve" font-size="6.63461" transform="translate(271.456, 223.24)" >b7b</text>
<text fill="#00ccee"  xml:space="preserve" font-size="6.63461" transform="translate(271.456, 408.824)" >b0b</text>
<text fill="#00ccee"  xml:space="preserve" font-size="6.63461" transform="translate(271.456, 424.289)" >b1b</text>
<text fill="#00ccee"  xml:space="preserve" font-size="6.63461" transform="translate(271.456, 439.754)" >b2b</text>
<text fill="#00ccee"  xml:space="preserve" font-size="6.63461" transform="translate(271.456, 296.7)" >b3a</text>
<text fill="#00ccee"  xml:space="preserve" font-size="6.63461" transform="translate(271.456, 304.433)" >b3b</text>
<text fill="#00ccee"  xml:space="preserve" font-size="6.63461" transform="translate(271.456, 312.166)" >b4a</text>
<text fill="#00ccee"  xml:space="preserve" font-size="6.63461" transform="translate(271.456, 319.898)" >b4b</text>
<text fill="#00ccee"  xml:space="preserve" font-size="6.63461" transform="translate(271.456, 327.631)" >b5a</text>
<text fill="#00ccee"  xml:space="preserve" font-size="6.63461" transform="translate(271.456, 335.364)" >b5b</text>
<text fill="#00ccee"  xml:space="preserve" font-size="6.63461" transform="translate(271.456, 343.096)" >b6a</text>
<text fill="#00ccee"  xml:space="preserve" font-size="6.63461" transform="translate(271.456, 350.829)" >b6b</text>
<text fill="#00ccee"  xml:space="preserve" font-size="6.63461" transform="translate(742.664, 362.186)" >ena</text>
<text fill="#00ccee"  xml:space="preserve" font-size="6.63461" transform="translate(235.127, 138.181)" >b0a</text>
<text fill="#00ccee"  xml:space="preserve" font-size="6.63461" transform="translate(235.127, 145.914)" >b0b</text>
<text fill="#00ccee"  xml:space="preserve" font-size="6.63461" transform="translate(271.456, 401.091)" >b0a</text>
<text fill="#00ccee"  xml:space="preserve" font-size="6.63461" transform="translate(271.456, 416.556)" >b1a</text>
<text fill="#00ccee"  xml:space="preserve" font-size="6.63461" transform="translate(271.456, 432.022)" >b2a</text>
<text fill="#00ccee"  xml:space="preserve" font-size="6.63461" transform="translate(235.127, 176.844)" >b1a</text>
<text fill="#00ccee"  xml:space="preserve" font-size="6.63461" transform="translate(235.127, 184.577)" >b1b</text>
<text fill="#00ccee"  xml:space="preserve" font-size="6.63461" transform="translate(235.127, 215.508)" >b2a</text>
<text fill="#00ccee"  xml:space="preserve" font-size="6.63461" transform="translate(235.127, 223.24)" >b2b</text>
<text fill="#00ccee"  xml:space="preserve" font-size="6.63461" transform="translate(235.127, 254.171)" >b3a</text>
<text fill="#00ccee"  xml:space="preserve" font-size="6.63461" transform="translate(235.127, 261.903)" >b3b</text>
<text fill="#00ccee"  xml:space="preserve" font-size="6.63461" transform="translate(235.127, 292.834)" >b4a</text>
<text fill="#00ccee"  xml:space="preserve" font-size="6.63461" transform="translate(235.127, 300.567)" >b4b</text>
<text fill="#00ccee"  xml:space="preserve" font-size="6.63461" transform="translate(235.127, 331.497)" >b5a</text>
<text fill="#00ccee"  xml:space="preserve" font-size="6.63461" transform="translate(235.127, 339.23)" >b5b</text>
<text fill="#00ccee"  xml:space="preserve" font-size="6.63461" transform="translate(235.127, 370.16)" >b6a</text>
<text fill="#00ccee"  xml:space="preserve" font-size="6.63461" transform="translate(235.127, 377.893)" >b6b</text>
<text fill="#00ccee"  xml:space="preserve" font-size="6.63461" transform="translate(235.127, 408.824)" >b7a</text>
<text fill="#00ccee"  xml:space="preserve" font-size="6.63461" transform="translate(235.127, 416.556)" >b7b</text>
<text fill="#00ccee"  xml:space="preserve" font-size="6.63461" transform="translate(19.7951, 153.405)" >b0</text>
<text fill="#00ccee"  xml:space="preserve" font-size="6.63461" transform="translate(19.7951, 192.068)" >b1</text>
<text fill="#00ccee"  xml:space="preserve" font-size="6.63461" transform="translate(19.7951, 230.731)" >b2</text>
<text fill="#00ccee"  xml:space="preserve" font-size="6.63461" transform="translate(19.7951, 269.394)" >b3</text>
<text fill="#00ccee"  xml:space="preserve" font-size="6.63461" transform="translate(19.7951, 308.058)" >b4</text>
<text fill="#00ccee"  xml:space="preserve" font-size="6.63461" transform="translate(19.7951, 346.721)" >b5</text>
<text fill="#00ccee"  xml:space="preserve" font-size="6.63461" transform="translate(19.7951, 385.384)" >b6</text>
<text fill="#00ccee"  xml:space="preserve" font-size="6.63461" transform="translate(19.7951, 424.047)" >b7</text>
<text fill="#00ccee"  xml:space="preserve" font-size="6.63461" transform="translate(17.2784, 138.181)" >vdd</text>
<text fill="#00ccee"  xml:space="preserve" font-size="6.63461" transform="translate(16.2386, 99.0346)" >dvdd</text>
<text fill="#00ccee"  xml:space="preserve" font-size="6.63461" transform="translate(18.2386, 110.634)" >dvss</text>
<text fill="#00ccee"  xml:space="preserve" font-size="6.63461" transform="translate(765.677, 300.567)" >out_unbuf</text>
<text fill="#00ccee"  xml:space="preserve" font-size="6.63461" transform="translate(834.407, 350.829)" >dvss</text>
<text fill="#cccccc"  xml:space="preserve" font-size="6.03146" transform="translate(474.259, 300.841)" >dac_half</text>
<text fill="#cccccc"  xml:space="preserve" font-size="4.02098" transform="translate(547.332, 227.101)" >x1</text>
<text fill="#cccccc"  xml:space="preserve" font-size="4.02098" transform="translate(446.808, 234.061)" >vdd</text>
<text fill="#cccccc"  xml:space="preserve" font-size="4.02098" transform="translate(446.808, 365.516)" >vss</text>
<text fill="#cccccc"  xml:space="preserve" font-size="4.02098" transform="translate(446.808, 295.922)" >b3</text>
<text fill="#cccccc"  xml:space="preserve" font-size="4.02098" transform="translate(446.808, 311.387)" >b4</text>
<text fill="#cccccc"  xml:space="preserve" font-size="4.02098" transform="translate(446.808, 303.655)" >b3b</text>
<text fill="#cccccc"  xml:space="preserve" font-size="4.02098" transform="translate(446.808, 319.12)" >b4b</text>
<text fill="#cccccc"  xml:space="preserve" font-size="4.02098" transform="translate(446.808, 326.853)" >b5</text>
<text fill="#cccccc"  xml:space="preserve" font-size="4.02098" transform="translate(531.466, 284.323)" >res_in</text>
<text fill="#cccccc"  xml:space="preserve" font-size="4.02098" transform="translate(446.808, 342.318)" >b6</text>
<text fill="#cccccc"  xml:space="preserve" font-size="4.02098" transform="translate(446.808, 249.526)" >b0</text>
<text fill="#cccccc"  xml:space="preserve" font-size="4.02098" transform="translate(529.466, 276.59)" >dum_in</text>
<text fill="#cccccc"  xml:space="preserve" font-size="4.02098" transform="translate(446.808, 350.051)" >b6b</text>
<text fill="#cccccc"  xml:space="preserve" font-size="4.02098" transform="translate(446.808, 334.585)" >b5b</text>
<text fill="#cccccc"  xml:space="preserve" font-size="4.02098" transform="translate(446.808, 257.259)" >b0b</text>
<text fill="#cccccc"  xml:space="preserve" font-size="4.02098" transform="translate(446.808, 264.991)" >b1</text>
<text fill="#cccccc"  xml:space="preserve" font-size="4.02098" transform="translate(446.808, 272.724)" >b1b</text>
<text fill="#cccccc"  xml:space="preserve" font-size="4.02098" transform="translate(446.808, 280.457)" >b2</text>
<text fill="#cccccc"  xml:space="preserve" font-size="4.02098" transform="translate(446.808, 288.189)" >b2b</text>
<text fill="#cccccc"  xml:space="preserve" font-size="4.02098" transform="translate(537.466, 234.061)" >out</text>
<text fill="#cccccc"  xml:space="preserve" font-size="4.02098" transform="translate(529.466, 350.051)" >res_out</text>
<text fill="#cccccc"  xml:space="preserve" font-size="4.02098" transform="translate(527.466, 357.783)" >dum_out</text>
<text fill="#cccccc"  xml:space="preserve" font-size="6.03146" transform="translate(474.259, 451.627)" >dac_half</text>
<text fill="#cccccc"  xml:space="preserve" font-size="4.02098" transform="translate(547.332, 377.888)" >x2</text>
<text fill="#cccccc"  xml:space="preserve" font-size="4.02098" transform="translate(446.808, 384.847)" >vdd</text>
<text fill="#cccccc"  xml:space="preserve" font-size="4.02098" transform="translate(446.808, 516.302)" >vss</text>
<text fill="#cccccc"  xml:space="preserve" font-size="4.02098" transform="translate(446.808, 446.709)" >b3</text>
<text fill="#cccccc"  xml:space="preserve" font-size="4.02098" transform="translate(446.808, 462.174)" >b4</text>
<text fill="#cccccc"  xml:space="preserve" font-size="4.02098" transform="translate(446.808, 454.441)" >b3b</text>
<text fill="#cccccc"  xml:space="preserve" font-size="4.02098" transform="translate(446.808, 469.907)" >b4b</text>
<text fill="#cccccc"  xml:space="preserve" font-size="4.02098" transform="translate(446.808, 477.639)" >b5</text>
<text fill="#cccccc"  xml:space="preserve" font-size="4.02098" transform="translate(531.466, 435.11)" >res_in</text>
<text fill="#cccccc"  xml:space="preserve" font-size="4.02098" transform="translate(446.808, 493.104)" >b6</text>
<text fill="#cccccc"  xml:space="preserve" font-size="4.02098" transform="translate(446.808, 400.313)" >b0</text>
<text fill="#cccccc"  xml:space="preserve" font-size="4.02098" transform="translate(529.466, 427.377)" >dum_in</text>
<text fill="#cccccc"  xml:space="preserve" font-size="4.02098" transform="translate(446.808, 500.837)" >b6b</text>
<text fill="#cccccc"  xml:space="preserve" font-size="4.02098" transform="translate(446.808, 485.372)" >b5b</text>
<text fill="#cccccc"  xml:space="preserve" font-size="4.02098" transform="translate(446.808, 408.045)" >b0b</text>
<text fill="#cccccc"  xml:space="preserve" font-size="4.02098" transform="translate(446.808, 415.778)" >b1</text>
<text fill="#cccccc"  xml:space="preserve" font-size="4.02098" transform="translate(446.808, 423.511)" >b1b</text>
<text fill="#cccccc"  xml:space="preserve" font-size="4.02098" transform="translate(446.808, 431.243)" >b2</text>
<text fill="#cccccc"  xml:space="preserve" font-size="4.02098" transform="translate(446.808, 438.976)" >b2b</text>
<text fill="#cccccc"  xml:space="preserve" font-size="4.02098" transform="translate(537.466, 384.847)" >out</text>
<text fill="#cccccc"  xml:space="preserve" font-size="4.02098" transform="translate(529.466, 500.837)" >res_out</text>
<text fill="#cccccc"  xml:space="preserve" font-size="4.02098" transform="translate(527.466, 508.57)" >dum_out</text>
<text fill="#cccccc"  xml:space="preserve" font-size="6.03146" transform="translate(681.3, 316.306)" >passtrans</text>
<text fill="#cccccc"  xml:space="preserve" font-size="4.02098" transform="translate(756.114, 292.829)" >x3</text>
<text fill="#cccccc"  xml:space="preserve" font-size="4.02098" transform="translate(655.589, 299.788)" >vdd</text>
<text fill="#cccccc"  xml:space="preserve" font-size="4.02098" transform="translate(655.589, 307.521)" >enab</text>
<text fill="#cccccc"  xml:space="preserve" font-size="4.02098" transform="translate(746.247, 299.788)" >out</text>
<text fill="#cccccc"  xml:space="preserve" font-size="4.02098" transform="translate(655.589, 315.254)" >in</text>
<text fill="#cccccc"  xml:space="preserve" font-size="4.02098" transform="translate(655.589, 322.986)" >ena</text>
<text fill="#cccccc"  xml:space="preserve" font-size="4.02098" transform="translate(655.589, 330.719)" >vss</text>
<text fill="#cccccc"  xml:space="preserve" font-size="6.03146" transform="translate(113.724, 420.697)" >level_shifter</text>
<text fill="#cccccc"  xml:space="preserve" font-size="4.02098" transform="translate(195.497, 401.086)" >x7</text>
<text fill="#cccccc"  xml:space="preserve" font-size="4.02098" transform="translate(94.9725, 408.045)" >vdd</text>
<text fill="#cccccc"  xml:space="preserve" font-size="4.02098" transform="translate(94.9725, 415.778)" >dvdd</text>
<text fill="#cccccc"  xml:space="preserve" font-size="4.02098" transform="translate(179.631, 408.045)" >bit_out</text>
<text fill="#cccccc"  xml:space="preserve" font-size="4.02098" transform="translate(177.631, 415.778)" >bitb_out</text>
<text fill="#cccccc"  xml:space="preserve" font-size="4.02098" transform="translate(94.9725, 423.511)" >bit_in</text>
<text fill="#cccccc"  xml:space="preserve" font-size="4.02098" transform="translate(94.9725, 431.243)" >dvss</text>
<text fill="#cccccc"  xml:space="preserve" font-size="6.03146" transform="translate(113.724, 382.033)" >level_shifter</text>
<text fill="#cccccc"  xml:space="preserve" font-size="4.02098" transform="translate(195.497, 362.423)" >x8</text>
<text fill="#cccccc"  xml:space="preserve" font-size="4.02098" transform="translate(94.9725, 369.382)" >vdd</text>
<text fill="#cccccc"  xml:space="preserve" font-size="4.02098" transform="translate(94.9725, 377.115)" >dvdd</text>
<text fill="#cccccc"  xml:space="preserve" font-size="4.02098" transform="translate(179.631, 369.382)" >bit_out</text>
<text fill="#cccccc"  xml:space="preserve" font-size="4.02098" transform="translate(177.631, 377.115)" >bitb_out</text>
<text fill="#cccccc"  xml:space="preserve" font-size="4.02098" transform="translate(94.9725, 384.847)" >bit_in</text>
<text fill="#cccccc"  xml:space="preserve" font-size="4.02098" transform="translate(94.9725, 392.58)" >dvss</text>
<text fill="#cccccc"  xml:space="preserve" font-size="6.03146" transform="translate(113.724, 343.37)" >level_shifter</text>
<text fill="#cccccc"  xml:space="preserve" font-size="4.02098" transform="translate(195.497, 323.76)" >x9</text>
<text fill="#cccccc"  xml:space="preserve" font-size="4.02098" transform="translate(94.9725, 330.719)" >vdd</text>
<text fill="#cccccc"  xml:space="preserve" font-size="4.02098" transform="translate(94.9725, 338.452)" >dvdd</text>
<text fill="#cccccc"  xml:space="preserve" font-size="4.02098" transform="translate(179.631, 330.719)" >bit_out</text>
<text fill="#cccccc"  xml:space="preserve" font-size="4.02098" transform="translate(177.631, 338.452)" >bitb_out</text>
<text fill="#cccccc"  xml:space="preserve" font-size="4.02098" transform="translate(94.9725, 346.184)" >bit_in</text>
<text fill="#cccccc"  xml:space="preserve" font-size="4.02098" transform="translate(94.9725, 353.917)" >dvss</text>
<text fill="#cccccc"  xml:space="preserve" font-size="6.03146" transform="translate(113.724, 304.707)" >level_shifter</text>
<text fill="#cccccc"  xml:space="preserve" font-size="4.02098" transform="translate(195.497, 285.096)" >x10</text>
<text fill="#cccccc"  xml:space="preserve" font-size="4.02098" transform="translate(94.9725, 292.056)" >vdd</text>
<text fill="#cccccc"  xml:space="preserve" font-size="4.02098" transform="translate(94.9725, 299.788)" >dvdd</text>
<text fill="#cccccc"  xml:space="preserve" font-size="4.02098" transform="translate(179.631, 292.056)" >bit_out</text>
<text fill="#cccccc"  xml:space="preserve" font-size="4.02098" transform="translate(177.631, 299.788)" >bitb_out</text>
<text fill="#cccccc"  xml:space="preserve" font-size="4.02098" transform="translate(94.9725, 307.521)" >bit_in</text>
<text fill="#cccccc"  xml:space="preserve" font-size="4.02098" transform="translate(94.9725, 315.254)" >dvss</text>
<text fill="#cccccc"  xml:space="preserve" font-size="6.03146" transform="translate(113.724, 266.044)" >level_shifter</text>
<text fill="#cccccc"  xml:space="preserve" font-size="4.02098" transform="translate(195.497, 246.433)" >x11</text>
<text fill="#cccccc"  xml:space="preserve" font-size="4.02098" transform="translate(94.9725, 253.392)" >vdd</text>
<text fill="#cccccc"  xml:space="preserve" font-size="4.02098" transform="translate(94.9725, 261.125)" >dvdd</text>
<text fill="#cccccc"  xml:space="preserve" font-size="4.02098" transform="translate(179.631, 253.392)" >bit_out</text>
<text fill="#cccccc"  xml:space="preserve" font-size="4.02098" transform="translate(177.631, 261.125)" >bitb_out</text>
<text fill="#cccccc"  xml:space="preserve" font-size="4.02098" transform="translate(94.9725, 268.858)" >bit_in</text>
<text fill="#cccccc"  xml:space="preserve" font-size="4.02098" transform="translate(94.9725, 276.59)" >dvss</text>
<text fill="#cccccc"  xml:space="preserve" font-size="6.03146" transform="translate(113.724, 227.38)" >level_shifter</text>
<text fill="#cccccc"  xml:space="preserve" font-size="4.02098" transform="translate(195.497, 207.77)" >x12</text>
<text fill="#cccccc"  xml:space="preserve" font-size="4.02098" transform="translate(94.9725, 214.729)" >vdd</text>
<text fill="#cccccc"  xml:space="preserve" font-size="4.02098" transform="translate(94.9725, 222.462)" >dvdd</text>
<text fill="#cccccc"  xml:space="preserve" font-size="4.02098" transform="translate(179.631, 214.729)" >bit_out</text>
<text fill="#cccccc"  xml:space="preserve" font-size="4.02098" transform="translate(177.631, 222.462)" >bitb_out</text>
<text fill="#cccccc"  xml:space="preserve" font-size="4.02098" transform="translate(94.9725, 230.195)" >bit_in</text>
<text fill="#cccccc"  xml:space="preserve" font-size="4.02098" transform="translate(94.9725, 237.927)" >dvss</text>
<text fill="#cccccc"  xml:space="preserve" font-size="6.03146" transform="translate(113.724, 188.717)" >level_shifter</text>
<text fill="#cccccc"  xml:space="preserve" font-size="4.02098" transform="translate(195.497, 169.107)" >x13</text>
<text fill="#cccccc"  xml:space="preserve" font-size="4.02098" transform="translate(94.9725, 176.066)" >vdd</text>
<text fill="#cccccc"  xml:space="preserve" font-size="4.02098" transform="translate(94.9725, 183.799)" >dvdd</text>
<text fill="#cccccc"  xml:space="preserve" font-size="4.02098" transform="translate(179.631, 176.066)" >bit_out</text>
<text fill="#cccccc"  xml:space="preserve" font-size="4.02098" transform="translate(177.631, 183.799)" >bitb_out</text>
<text fill="#cccccc"  xml:space="preserve" font-size="4.02098" transform="translate(94.9725, 191.531)" >bit_in</text>
<text fill="#cccccc"  xml:space="preserve" font-size="4.02098" transform="translate(94.9725, 199.264)" >dvss</text>
<text fill="#cccccc"  xml:space="preserve" font-size="6.03146" transform="translate(113.724, 150.054)" >level_shifter</text>
<text fill="#cccccc"  xml:space="preserve" font-size="4.02098" transform="translate(195.497, 130.443)" >x14</text>
<text fill="#cccccc"  xml:space="preserve" font-size="4.02098" transform="translate(94.9725, 137.403)" >vdd</text>
<text fill="#cccccc"  xml:space="preserve" font-size="4.02098" transform="translate(94.9725, 145.135)" >dvdd</text>
<text fill="#cccccc"  xml:space="preserve" font-size="4.02098" transform="translate(179.631, 137.403)" >bit_out</text>
<text fill="#cccccc"  xml:space="preserve" font-size="4.02098" transform="translate(177.631, 145.135)" >bitb_out</text>
<text fill="#cccccc"  xml:space="preserve" font-size="4.02098" transform="translate(94.9725, 152.868)" >bit_in</text>
<text fill="#cccccc"  xml:space="preserve" font-size="4.02098" transform="translate(94.9725, 160.601)" >dvss</text>
<text fill="#cccccc"  xml:space="preserve" font-size="6.03146" transform="translate(681.3, 401.365)" >passtrans</text>
<text fill="#cccccc"  xml:space="preserve" font-size="4.02098" transform="translate(756.114, 377.888)" >x15</text>
<text fill="#cccccc"  xml:space="preserve" font-size="4.02098" transform="translate(655.589, 384.847)" >vdd</text>
<text fill="#cccccc"  xml:space="preserve" font-size="4.02098" transform="translate(655.589, 392.58)" >enab</text>
<text fill="#cccccc"  xml:space="preserve" font-size="4.02098" transform="translate(746.247, 384.847)" >out</text>
<text fill="#cccccc"  xml:space="preserve" font-size="4.02098" transform="translate(655.589, 400.313)" >in</text>
<text fill="#cccccc"  xml:space="preserve" font-size="4.02098" transform="translate(655.589, 408.045)" >ena</text>
<text fill="#cccccc"  xml:space="preserve" font-size="4.02098" transform="translate(655.589, 415.778)" >vss</text>
<text fill="#cccccc"  xml:space="preserve" font-size="6.03146" transform="translate(460.34, 548.285)" >dac_column_dummy</text>
<text fill="#cccccc"  xml:space="preserve" font-size="4.02098" transform="translate(547.332, 528.675)" >x18</text>
<text fill="#cccccc"  xml:space="preserve" font-size="4.02098" transform="translate(446.808, 535.634)" >vdd</text>
<text fill="#cccccc"  xml:space="preserve" font-size="4.02098" transform="translate(529.466, 535.634)" >dum_in</text>
<text fill="#cccccc"  xml:space="preserve" font-size="4.02098" transform="translate(531.466, 543.367)" >res_in</text>
<text fill="#cccccc"  xml:space="preserve" font-size="4.02098" transform="translate(529.466, 551.099)" >res_out</text>
<text fill="#cccccc"  xml:space="preserve" font-size="4.02098" transform="translate(446.808, 558.832)" >vss</text>
<text fill="#cccccc"  xml:space="preserve" font-size="4.02098" transform="translate(527.466, 558.832)" >dum_out</text>
<text fill="#cccccc"  xml:space="preserve" font-size="6.03146" transform="translate(460.34, 594.681)" >dac_column_dummy</text>
<text fill="#cccccc"  xml:space="preserve" font-size="4.02098" transform="translate(547.332, 575.071)" >x5</text>
<text fill="#cccccc"  xml:space="preserve" font-size="4.02098" transform="translate(446.808, 582.03)" >vdd</text>
<text fill="#cccccc"  xml:space="preserve" font-size="4.02098" transform="translate(529.466, 582.03)" >dum_in</text>
<text fill="#cccccc"  xml:space="preserve" font-size="4.02098" transform="translate(531.466, 589.763)" >res_in</text>
<text fill="#cccccc"  xml:space="preserve" font-size="4.02098" transform="translate(529.466, 597.495)" >res_out</text>
<text fill="#cccccc"  xml:space="preserve" font-size="4.02098" transform="translate(446.808, 605.228)" >vss</text>
<text fill="#cccccc"  xml:space="preserve" font-size="4.02098" transform="translate(527.466, 605.228)" >dum_out</text>
<text fill="#cccccc"  xml:space="preserve" font-size="6.03146" transform="translate(460.34, 196.45)" >dac_column_dummy</text>
<text fill="#cccccc"  xml:space="preserve" font-size="4.02098" transform="translate(547.332, 176.839)" >x4</text>
<text fill="#cccccc"  xml:space="preserve" font-size="4.02098" transform="translate(446.808, 183.799)" >vdd</text>
<text fill="#cccccc"  xml:space="preserve" font-size="4.02098" transform="translate(529.466, 183.799)" >dum_in</text>
<text fill="#cccccc"  xml:space="preserve" font-size="4.02098" transform="translate(531.466, 191.531)" >res_in</text>
<text fill="#cccccc"  xml:space="preserve" font-size="4.02098" transform="translate(529.466, 199.264)" >res_out</text>
<text fill="#cccccc"  xml:space="preserve" font-size="4.02098" transform="translate(446.808, 206.997)" >vss</text>
<text fill="#cccccc"  xml:space="preserve" font-size="4.02098" transform="translate(527.466, 206.997)" >dum_out</text>
<text fill="#cccccc"  xml:space="preserve" font-size="6.03146" transform="translate(460.34, 157.787)" >dac_column_dummy</text>
<text fill="#cccccc"  xml:space="preserve" font-size="4.02098" transform="translate(547.332, 138.176)" >x16</text>
<text fill="#cccccc"  xml:space="preserve" font-size="4.02098" transform="translate(446.808, 145.135)" >vdd</text>
<text fill="#cccccc"  xml:space="preserve" font-size="4.02098" transform="translate(529.466, 145.135)" >dum_in</text>
<text fill="#cccccc"  xml:space="preserve" font-size="4.02098" transform="translate(531.466, 152.868)" >res_in</text>
<text fill="#cccccc"  xml:space="preserve" font-size="4.02098" transform="translate(529.466, 160.601)" >res_out</text>
<text fill="#cccccc"  xml:space="preserve" font-size="4.02098" transform="translate(446.808, 168.333)" >vss</text>
<text fill="#cccccc"  xml:space="preserve" font-size="4.02098" transform="translate(527.466, 168.333)" >dum_out</text>
<text fill="#cccccc"  xml:space="preserve" font-size="6.03146" transform="translate(857.798, 304.707)" >follower_amp</text>
<text fill="#cccccc"  xml:space="preserve" font-size="4.02098" transform="translate(937.831, 285.096)" >x6</text>
<text fill="#cccccc"  xml:space="preserve" font-size="4.02098" transform="translate(837.306, 292.056)" >vdd</text>
<text fill="#cccccc"  xml:space="preserve" font-size="4.02098" transform="translate(927.965, 292.056)" >out</text>
<text fill="#cccccc"  xml:space="preserve" font-size="4.02098" transform="translate(837.306, 307.521)" >ena</text>
<text fill="#cccccc"  xml:space="preserve" font-size="4.02098" transform="translate(837.306, 315.254)" >vss</text>
<text fill="#cccccc"  xml:space="preserve" font-size="4.02098" transform="translate(837.306, 299.788)" >in</text>
<path class="l4" d="M444.875 228.09L545.399 228.09"/>
<path class="l4" d="M444.875 367.278L545.399 367.278"/>
<path class="l4" d="M444.875 228.09L444.875 367.278"/>
<path class="l4" d="M545.399 228.09L545.399 367.278"/>
<path class="l4" d="M437.142 231.956L444.875 231.956"/>
<path class="l4" d="M437.142 363.411L444.875 363.411"/>
<path class="l4" d="M437.142 293.817L444.875 293.817"/>
<path class="l4" d="M437.142 309.283L444.875 309.283"/>
<path class="l4" d="M437.142 301.55L444.875 301.55"/>
<path class="l4" d="M437.142 317.015L444.875 317.015"/>
<path class="l4" d="M437.142 324.748L444.875 324.748"/>
<path class="l4" d="M545.399 282.219L553.132 282.219"/>
<path class="l4" d="M437.142 340.213L444.875 340.213"/>
<path class="l4" d="M437.142 247.422L444.875 247.422"/>
<path class="l4" d="M545.399 274.486L553.132 274.486"/>
<path class="l4" d="M437.142 347.946L444.875 347.946"/>
<path class="l4" d="M437.142 332.481L444.875 332.481"/>
<path class="l4" d="M437.142 255.154L444.875 255.154"/>
<path class="l4" d="M437.142 262.887L444.875 262.887"/>
<path class="l4" d="M437.142 270.62L444.875 270.62"/>
<path class="l4" d="M437.142 278.352L444.875 278.352"/>
<path class="l4" d="M437.142 286.085L444.875 286.085"/>
<path class="l4" d="M545.399 231.956L553.132 231.956"/>
<path class="l4" d="M545.399 347.946L553.132 347.946"/>
<path class="l4" d="M545.399 355.679L553.132 355.679"/>
<path class="l4" d="M444.875 378.877L545.399 378.877"/>
<path class="l4" d="M444.875 518.064L545.399 518.064"/>
<path class="l4" d="M444.875 378.877L444.875 518.064"/>
<path class="l4" d="M545.399 378.877L545.399 518.064"/>
<path class="l4" d="M437.142 382.743L444.875 382.743"/>
<path class="l4" d="M437.142 514.198L444.875 514.198"/>
<path class="l4" d="M437.142 444.604L444.875 444.604"/>
<path class="l4" d="M437.142 460.069L444.875 460.069"/>
<path class="l4" d="M437.142 452.337L444.875 452.337"/>
<path class="l4" d="M437.142 467.802L444.875 467.802"/>
<path class="l4" d="M437.142 475.535L444.875 475.535"/>
<path class="l4" d="M545.399 433.005L553.132 433.005"/>
<path class="l4" d="M437.142 491L444.875 491"/>
<path class="l4" d="M437.142 398.208L444.875 398.208"/>
<path class="l4" d="M545.399 425.272L553.132 425.272"/>
<path class="l4" d="M437.142 498.733L444.875 498.733"/>
<path class="l4" d="M437.142 483.267L444.875 483.267"/>
<path class="l4" d="M437.142 405.941L444.875 405.941"/>
<path class="l4" d="M437.142 413.674L444.875 413.674"/>
<path class="l4" d="M437.142 421.406L444.875 421.406"/>
<path class="l4" d="M437.142 429.139L444.875 429.139"/>
<path class="l4" d="M437.142 436.871L444.875 436.871"/>
<path class="l4" d="M545.399 382.743L553.132 382.743"/>
<path class="l4" d="M545.399 498.733L553.132 498.733"/>
<path class="l4" d="M545.399 506.465L553.132 506.465"/>
<path class="l4" d="M653.656 293.817L754.181 293.817"/>
<path class="l4" d="M653.656 332.481L754.181 332.481"/>
<path class="l4" d="M653.656 293.817L653.656 332.481"/>
<path class="l4" d="M754.181 293.817L754.181 332.481"/>
<path class="l4" d="M645.923 297.684L653.656 297.684"/>
<path class="l4" d="M645.923 305.416L653.656 305.416"/>
<path class="l4" d="M754.181 297.684L761.913 297.684"/>
<path class="l4" d="M645.923 313.149L653.656 313.149"/>
<path class="l4" d="M645.923 320.882L653.656 320.882"/>
<path class="l4" d="M645.923 328.614L653.656 328.614"/>
<path class="l4" d="M93.0393 402.075L193.564 402.075"/>
<path class="l4" d="M93.0393 433.005L193.564 433.005"/>
<path class="l4" d="M93.0393 402.075L93.0393 433.005"/>
<path class="l4" d="M193.564 402.075L193.564 433.005"/>
<path class="l4" d="M85.3067 405.941L93.0393 405.941"/>
<path class="l4" d="M85.3067 413.674L93.0393 413.674"/>
<path class="l4" d="M193.564 405.941L201.296 405.941"/>
<path class="l4" d="M193.564 413.674L201.296 413.674"/>
<path class="l4" d="M85.3067 421.406L93.0393 421.406"/>
<path class="l4" d="M85.3067 429.139L93.0393 429.139"/>
<path class="l4" d="M93.0393 363.411L193.564 363.411"/>
<path class="l4" d="M93.0393 394.342L193.564 394.342"/>
<path class="l4" d="M93.0393 363.411L93.0393 394.342"/>
<path class="l4" d="M193.564 363.411L193.564 394.342"/>
<path class="l4" d="M85.3067 367.278L93.0393 367.278"/>
<path class="l4" d="M85.3067 375.01L93.0393 375.01"/>
<path class="l4" d="M193.564 367.278L201.296 367.278"/>
<path class="l4" d="M193.564 375.01L201.296 375.01"/>
<path class="l4" d="M85.3067 382.743L93.0393 382.743"/>
<path class="l4" d="M85.3067 390.476L93.0393 390.476"/>
<path class="l4" d="M93.0393 324.748L193.564 324.748"/>
<path class="l4" d="M93.0393 355.679L193.564 355.679"/>
<path class="l4" d="M93.0393 324.748L93.0393 355.679"/>
<path class="l4" d="M193.564 324.748L193.564 355.679"/>
<path class="l4" d="M85.3067 328.614L93.0393 328.614"/>
<path class="l4" d="M85.3067 336.347L93.0393 336.347"/>
<path class="l4" d="M193.564 328.614L201.296 328.614"/>
<path class="l4" d="M193.564 336.347L201.296 336.347"/>
<path class="l4" d="M85.3067 344.08L93.0393 344.08"/>
<path class="l4" d="M85.3067 351.812L93.0393 351.812"/>
<path class="l4" d="M93.0393 286.085L193.564 286.085"/>
<path class="l4" d="M93.0393 317.015L193.564 317.015"/>
<path class="l4" d="M93.0393 286.085L93.0393 317.015"/>
<path class="l4" d="M193.564 286.085L193.564 317.015"/>
<path class="l4" d="M85.3067 289.951L93.0393 289.951"/>
<path class="l4" d="M85.3067 297.684L93.0393 297.684"/>
<path class="l4" d="M193.564 289.951L201.296 289.951"/>
<path class="l4" d="M193.564 297.684L201.296 297.684"/>
<path class="l4" d="M85.3067 305.416L93.0393 305.416"/>
<path class="l4" d="M85.3067 313.149L93.0393 313.149"/>
<path class="l4" d="M93.0393 247.422L193.564 247.422"/>
<path class="l4" d="M93.0393 278.352L193.564 278.352"/>
<path class="l4" d="M93.0393 247.422L93.0393 278.352"/>
<path class="l4" d="M193.564 247.422L193.564 278.352"/>
<path class="l4" d="M85.3067 251.288L93.0393 251.288"/>
<path class="l4" d="M85.3067 259.021L93.0393 259.021"/>
<path class="l4" d="M193.564 251.288L201.296 251.288"/>
<path class="l4" d="M193.564 259.021L201.296 259.021"/>
<path class="l4" d="M85.3067 266.753L93.0393 266.753"/>
<path class="l4" d="M85.3067 274.486L93.0393 274.486"/>
<path class="l4" d="M93.0393 208.758L193.564 208.758"/>
<path class="l4" d="M93.0393 239.689L193.564 239.689"/>
<path class="l4" d="M93.0393 208.758L93.0393 239.689"/>
<path class="l4" d="M193.564 208.758L193.564 239.689"/>
<path class="l4" d="M85.3067 212.625L93.0393 212.625"/>
<path class="l4" d="M85.3067 220.357L93.0393 220.357"/>
<path class="l4" d="M193.564 212.625L201.296 212.625"/>
<path class="l4" d="M193.564 220.357L201.296 220.357"/>
<path class="l4" d="M85.3067 228.09L93.0393 228.09"/>
<path class="l4" d="M85.3067 235.823L93.0393 235.823"/>
<path class="l4" d="M93.0393 170.095L193.564 170.095"/>
<path class="l4" d="M93.0393 201.026L193.564 201.026"/>
<path class="l4" d="M93.0393 170.095L93.0393 201.026"/>
<path class="l4" d="M193.564 170.095L193.564 201.026"/>
<path class="l4" d="M85.3067 173.961L93.0393 173.961"/>
<path class="l4" d="M85.3067 181.694L93.0393 181.694"/>
<path class="l4" d="M193.564 173.961L201.296 173.961"/>
<path class="l4" d="M193.564 181.694L201.296 181.694"/>
<path class="l4" d="M85.3067 189.427L93.0393 189.427"/>
<path class="l4" d="M85.3067 197.159L93.0393 197.159"/>
<path class="l4" d="M93.0393 131.432L193.564 131.432"/>
<path class="l4" d="M93.0393 162.363L193.564 162.363"/>
<path class="l4" d="M93.0393 131.432L93.0393 162.363"/>
<path class="l4" d="M193.564 131.432L193.564 162.363"/>
<path class="l4" d="M85.3067 135.298L93.0393 135.298"/>
<path class="l4" d="M85.3067 143.031L93.0393 143.031"/>
<path class="l4" d="M193.564 135.298L201.296 135.298"/>
<path class="l4" d="M193.564 143.031L201.296 143.031"/>
<path class="l4" d="M85.3067 150.764L93.0393 150.764"/>
<path class="l4" d="M85.3067 158.496L93.0393 158.496"/>
<path class="l4" d="M653.656 378.877L754.181 378.877"/>
<path class="l4" d="M653.656 417.54L754.181 417.54"/>
<path class="l4" d="M653.656 378.877L653.656 417.54"/>
<path class="l4" d="M754.181 378.877L754.181 417.54"/>
<path class="l4" d="M645.923 382.743L653.656 382.743"/>
<path class="l4" d="M645.923 390.476L653.656 390.476"/>
<path class="l4" d="M754.181 382.743L761.913 382.743"/>
<path class="l4" d="M645.923 398.208L653.656 398.208"/>
<path class="l4" d="M645.923 405.941L653.656 405.941"/>
<path class="l4" d="M645.923 413.674L653.656 413.674"/>
<path class="l4" d="M444.875 529.663L545.399 529.663"/>
<path class="l4" d="M444.875 560.594L545.399 560.594"/>
<path class="l4" d="M444.875 529.663L444.875 560.594"/>
<path class="l4" d="M545.399 529.663L545.399 560.594"/>
<path class="l4" d="M437.142 533.53L444.875 533.53"/>
<path class="l4" d="M545.399 533.53L553.132 533.53"/>
<path class="l4" d="M545.399 541.262L553.132 541.262"/>
<path class="l4" d="M545.399 548.995L553.132 548.995"/>
<path class="l4" d="M437.142 556.727L444.875 556.727"/>
<path class="l4" d="M545.399 556.727L553.132 556.727"/>
<path class="l4" d="M444.875 576.059L545.399 576.059"/>
<path class="l4" d="M444.875 606.99L545.399 606.99"/>
<path class="l4" d="M444.875 576.059L444.875 606.99"/>
<path class="l4" d="M545.399 576.059L545.399 606.99"/>
<path class="l4" d="M437.142 579.925L444.875 579.925"/>
<path class="l4" d="M545.399 579.925L553.132 579.925"/>
<path class="l4" d="M545.399 587.658L553.132 587.658"/>
<path class="l4" d="M545.399 595.391L553.132 595.391"/>
<path class="l4" d="M437.142 603.123L444.875 603.123"/>
<path class="l4" d="M545.399 603.123L553.132 603.123"/>
<path class="l4" d="M444.875 177.828L545.399 177.828"/>
<path class="l4" d="M444.875 208.758L545.399 208.758"/>
<path class="l4" d="M444.875 177.828L444.875 208.758"/>
<path class="l4" d="M545.399 177.828L545.399 208.758"/>
<path class="l4" d="M437.142 181.694L444.875 181.694"/>
<path class="l4" d="M545.399 181.694L553.132 181.694"/>
<path class="l4" d="M545.399 189.427L553.132 189.427"/>
<path class="l4" d="M545.399 197.159L553.132 197.159"/>
<path class="l4" d="M437.142 204.892L444.875 204.892"/>
<path class="l4" d="M545.399 204.892L553.132 204.892"/>
<path class="l4" d="M444.875 139.165L545.399 139.165"/>
<path class="l4" d="M444.875 170.095L545.399 170.095"/>
<path class="l4" d="M444.875 139.165L444.875 170.095"/>
<path class="l4" d="M545.399 139.165L545.399 170.095"/>
<path class="l4" d="M437.142 143.031L444.875 143.031"/>
<path class="l4" d="M545.399 143.031L553.132 143.031"/>
<path class="l4" d="M545.399 150.764L553.132 150.764"/>
<path class="l4" d="M545.399 158.496L553.132 158.496"/>
<path class="l4" d="M437.142 166.229L444.875 166.229"/>
<path class="l4" d="M545.399 166.229L553.132 166.229"/>
<path class="l4" d="M835.373 286.085L935.898 286.085"/>
<path class="l4" d="M835.373 317.015L935.898 317.015"/>
<path class="l4" d="M835.373 286.085L835.373 317.015"/>
<path class="l4" d="M935.898 286.085L935.898 317.015"/>
<path class="l4" d="M827.641 289.951L835.373 289.951"/>
<path class="l4" d="M935.898 289.951L943.63 289.951"/>
<path class="l4" d="M827.641 305.416L835.373 305.416"/>
<path class="l4" d="M827.641 313.149L835.373 313.149"/>
<path class="l4" d="M827.641 297.684L835.373 297.684"/>
<path class="l5" d="M436.175 230.99L438.109 230.99L438.109 232.923L436.175 232.923L436.175 230.99z"/>
<path class="l5" d="M436.175 362.445L438.109 362.445L438.109 364.378L436.175 364.378L436.175 362.445z"/>
<path class="l5" d="M436.175 292.851L438.109 292.851L438.109 294.784L436.175 294.784L436.175 292.851z"/>
<path class="l5" d="M436.175 308.316L438.109 308.316L438.109 310.249L436.175 310.249L436.175 308.316z"/>
<path class="l5" d="M436.175 300.584L438.109 300.584L438.109 302.517L436.175 302.517L436.175 300.584z"/>
<path class="l5" d="M436.175 316.049L438.109 316.049L438.109 317.982L436.175 317.982L436.175 316.049z"/>
<path class="l5" d="M436.175 323.781L438.109 323.781L438.109 325.715L436.175 325.715L436.175 323.781z"/>
<path class="l5" d="M552.165 281.252L554.098 281.252L554.098 283.185L552.165 283.185L552.165 281.252z"/>
<path class="l5" d="M436.175 339.247L438.109 339.247L438.109 341.18L436.175 341.18L436.175 339.247z"/>
<path class="l5" d="M436.175 246.455L438.109 246.455L438.109 248.388L436.175 248.388L436.175 246.455z"/>
<path class="l5" d="M552.165 273.519L554.098 273.519L554.098 275.452L552.165 275.452L552.165 273.519z"/>
<path class="l5" d="M436.175 346.979L438.109 346.979L438.109 348.913L436.175 348.913L436.175 346.979z"/>
<path class="l5" d="M436.175 331.514L438.109 331.514L438.109 333.447L436.175 333.447L436.175 331.514z"/>
<path class="l5" d="M436.175 254.188L438.109 254.188L438.109 256.121L436.175 256.121L436.175 254.188z"/>
<path class="l5" d="M436.175 261.92L438.109 261.92L438.109 263.853L436.175 263.853L436.175 261.92z"/>
<path class="l5" d="M436.175 269.653L438.109 269.653L438.109 271.586L436.175 271.586L436.175 269.653z"/>
<path class="l5" d="M436.175 277.386L438.109 277.386L438.109 279.319L436.175 279.319L436.175 277.386z"/>
<path class="l5" d="M436.175 285.118L438.109 285.118L438.109 287.051L436.175 287.051L436.175 285.118z"/>
<path class="l5" d="M552.165 230.99L554.098 230.99L554.098 232.923L552.165 232.923L552.165 230.99z"/>
<path class="l5" d="M552.165 346.979L554.098 346.979L554.098 348.913L552.165 348.913L552.165 346.979z"/>
<path class="l5" d="M552.165 354.712L554.098 354.712L554.098 356.645L552.165 356.645L552.165 354.712z"/>
<path class="l5" d="M436.175 381.776L438.109 381.776L438.109 383.71L436.175 383.71L436.175 381.776z"/>
<path class="l5" d="M436.175 513.231L438.109 513.231L438.109 515.164L436.175 515.164L436.175 513.231z"/>
<path class="l5" d="M436.175 443.638L438.109 443.638L438.109 445.571L436.175 445.571L436.175 443.638z"/>
<path class="l5" d="M436.175 459.103L438.109 459.103L438.109 461.036L436.175 461.036L436.175 459.103z"/>
<path class="l5" d="M436.175 451.37L438.109 451.37L438.109 453.303L436.175 453.303L436.175 451.37z"/>
<path class="l5" d="M436.175 466.835L438.109 466.835L438.109 468.769L436.175 468.769L436.175 466.835z"/>
<path class="l5" d="M436.175 474.568L438.109 474.568L438.109 476.501L436.175 476.501L436.175 474.568z"/>
<path class="l5" d="M552.165 432.039L554.098 432.039L554.098 433.972L552.165 433.972L552.165 432.039z"/>
<path class="l5" d="M436.175 490.033L438.109 490.033L438.109 491.967L436.175 491.967L436.175 490.033z"/>
<path class="l5" d="M436.175 397.242L438.109 397.242L438.109 399.175L436.175 399.175L436.175 397.242z"/>
<path class="l5" d="M552.165 424.306L554.098 424.306L554.098 426.239L552.165 426.239L552.165 424.306z"/>
<path class="l5" d="M436.175 497.766L438.109 497.766L438.109 499.699L436.175 499.699L436.175 497.766z"/>
<path class="l5" d="M436.175 482.301L438.109 482.301L438.109 484.234L436.175 484.234L436.175 482.301z"/>
<path class="l5" d="M436.175 404.974L438.109 404.974L438.109 406.907L436.175 406.907L436.175 404.974z"/>
<path class="l5" d="M436.175 412.707L438.109 412.707L438.109 414.64L436.175 414.64L436.175 412.707z"/>
<path class="l5" d="M436.175 420.44L438.109 420.44L438.109 422.373L436.175 422.373L436.175 420.44z"/>
<path class="l5" d="M436.175 428.172L438.109 428.172L438.109 430.105L436.175 430.105L436.175 428.172z"/>
<path class="l5" d="M436.175 435.905L438.109 435.905L438.109 437.838L436.175 437.838L436.175 435.905z"/>
<path class="l5" d="M552.165 381.776L554.098 381.776L554.098 383.71L552.165 383.71L552.165 381.776z"/>
<path class="l5" d="M552.165 497.766L554.098 497.766L554.098 499.699L552.165 499.699L552.165 497.766z"/>
<path class="l5" d="M552.165 505.499L554.098 505.499L554.098 507.432L552.165 507.432L552.165 505.499z"/>
<path class="l5" d="M644.957 296.717L646.89 296.717L646.89 298.65L644.957 298.65L644.957 296.717z"/>
<path class="l5" d="M644.957 304.45L646.89 304.45L646.89 306.383L644.957 306.383L644.957 304.45z"/>
<path class="l5" d="M760.947 296.717L762.88 296.717L762.88 298.65L760.947 298.65L760.947 296.717z"/>
<path class="l5" d="M644.957 312.183L646.89 312.183L646.89 314.116L644.957 314.116L644.957 312.183z"/>
<path class="l5" d="M644.957 319.915L646.89 319.915L646.89 321.848L644.957 321.848L644.957 319.915z"/>
<path class="l5" d="M644.957 327.648L646.89 327.648L646.89 329.581L644.957 329.581L644.957 327.648z"/>
<path class="l5" d="M966.828 289.951L970.211 289.951"/>
<path class="l5" d="M973.594 289.951L972.144 288.018L968.761 288.018L970.211 289.951L968.761 291.884L972.144 291.884L973.594 289.951"/>
<path class="l5" d="M966.345 289.468L967.312 289.468L967.312 290.434L966.345 290.434L966.345 289.468z"/>
<path class="l5" d="M304.479 100.501L305.687 100.501"/>
<path class="l5" d="M300.371 102.435L298.921 100.501L300.371 98.5682L303.029 98.5682L304.479 100.501L303.029 102.435L300.371 102.435"/>
<path class="l5" d="M305.204 100.018L306.17 100.018L306.17 100.985L305.204 100.985L305.204 100.018z"/>
<path class="l5" d="M304.479 112.1L305.687 112.1"/>
<path class="l5" d="M300.371 114.033L298.921 112.1L300.371 110.167L303.029 110.167L304.479 112.1L303.029 114.033L300.371 114.033"/>
<path class="l5" d="M305.204 111.617L306.17 111.617L306.17 112.584L305.204 112.584L305.204 111.617z"/>
<path class="l5" d="M595.661 197.159L596.87 197.159"/>
<path class="l5" d="M600.977 199.093L602.427 197.159L600.977 195.226L598.319 195.226L596.87 197.159L598.319 199.093L600.977 199.093"/>
<path class="l5" d="M595.178 196.676L596.145 196.676L596.145 197.643L595.178 197.643L595.178 196.676z"/>
<path class="l5" d="M599.528 498.733L600.736 498.733"/>
<path class="l5" d="M604.844 500.666L606.294 498.733L604.844 496.799L602.186 496.799L600.736 498.733L602.186 500.666L604.844 500.666"/>
<path class="l5" d="M599.044 498.249L600.011 498.249L600.011 499.216L599.044 499.216L599.044 498.249z"/>
<path class="l5" d="M285.872 212.141L286.839 212.141L286.839 213.108L285.872 213.108L285.872 212.141z"/>
<path class="l5" d="M285.872 219.874L286.839 219.874L286.839 220.841L285.872 220.841L285.872 219.874z"/>
<path class="l5" d="M285.872 405.458L286.839 405.458L286.839 406.424L285.872 406.424L285.872 405.458z"/>
<path class="l5" d="M285.872 420.923L286.839 420.923L286.839 421.889L285.872 421.889L285.872 420.923z"/>
<path class="l5" d="M285.872 436.388L286.839 436.388L286.839 437.355L285.872 437.355L285.872 436.388z"/>
<path class="l5" d="M285.872 293.334L286.839 293.334L286.839 294.301L285.872 294.301L285.872 293.334z"/>
<path class="l5" d="M285.872 301.067L286.839 301.067L286.839 302.033L285.872 302.033L285.872 301.067z"/>
<path class="l5" d="M285.872 308.799L286.839 308.799L286.839 309.766L285.872 309.766L285.872 308.799z"/>
<path class="l5" d="M285.872 316.532L286.839 316.532L286.839 317.499L285.872 317.499L285.872 316.532z"/>
<path class="l5" d="M285.872 324.265L286.839 324.265L286.839 325.231L285.872 325.231L285.872 324.265z"/>
<path class="l5" d="M285.872 331.997L286.839 331.997L286.839 332.964L285.872 332.964L285.872 331.997z"/>
<path class="l5" d="M285.872 339.73L286.839 339.73L286.839 340.697L285.872 340.697L285.872 339.73z"/>
<path class="l5" d="M285.872 347.463L286.839 347.463L286.839 348.429L285.872 348.429L285.872 347.463z"/>
<path class="l5" d="M759.98 359.545L761.913 359.545"/>
<path class="l5" d="M759.98 359.545L758.53 357.612L755.147 357.612L756.597 359.545L755.147 361.478L758.53 361.478L759.98 359.545"/>
<path class="l5" d="M761.43 359.062L762.396 359.062L762.396 360.028L761.43 360.028L761.43 359.062z"/>
<path class="l5" d="M84.3401 404.974L86.2733 404.974L86.2733 406.907L84.3401 406.907L84.3401 404.974z"/>
<path class="l5" d="M84.3401 412.707L86.2733 412.707L86.2733 414.64L84.3401 414.64L84.3401 412.707z"/>
<path class="l5" d="M200.33 404.974L202.263 404.974L202.263 406.907L200.33 406.907L200.33 404.974z"/>
<path class="l5" d="M200.33 412.707L202.263 412.707L202.263 414.64L200.33 414.64L200.33 412.707z"/>
<path class="l5" d="M84.3401 420.44L86.2733 420.44L86.2733 422.373L84.3401 422.373L84.3401 420.44z"/>
<path class="l5" d="M84.3401 428.172L86.2733 428.172L86.2733 430.105L84.3401 430.105L84.3401 428.172z"/>
<path class="l5" d="M84.3401 366.311L86.2733 366.311L86.2733 368.244L84.3401 368.244L84.3401 366.311z"/>
<path class="l5" d="M84.3401 374.044L86.2733 374.044L86.2733 375.977L84.3401 375.977L84.3401 374.044z"/>
<path class="l5" d="M200.33 366.311L202.263 366.311L202.263 368.244L200.33 368.244L200.33 366.311z"/>
<path class="l5" d="M200.33 374.044L202.263 374.044L202.263 375.977L200.33 375.977L200.33 374.044z"/>
<path class="l5" d="M84.3401 381.776L86.2733 381.776L86.2733 383.71L84.3401 383.71L84.3401 381.776z"/>
<path class="l5" d="M84.3401 389.509L86.2733 389.509L86.2733 391.442L84.3401 391.442L84.3401 389.509z"/>
<path class="l5" d="M84.3401 327.648L86.2733 327.648L86.2733 329.581L84.3401 329.581L84.3401 327.648z"/>
<path class="l5" d="M84.3401 335.38L86.2733 335.38L86.2733 337.314L84.3401 337.314L84.3401 335.38z"/>
<path class="l5" d="M200.33 327.648L202.263 327.648L202.263 329.581L200.33 329.581L200.33 327.648z"/>
<path class="l5" d="M200.33 335.38L202.263 335.38L202.263 337.314L200.33 337.314L200.33 335.38z"/>
<path class="l5" d="M84.3401 343.113L86.2733 343.113L86.2733 345.046L84.3401 345.046L84.3401 343.113z"/>
<path class="l5" d="M84.3401 350.846L86.2733 350.846L86.2733 352.779L84.3401 352.779L84.3401 350.846z"/>
<path class="l5" d="M84.3401 288.985L86.2733 288.985L86.2733 290.918L84.3401 290.918L84.3401 288.985z"/>
<path class="l5" d="M84.3401 296.717L86.2733 296.717L86.2733 298.65L84.3401 298.65L84.3401 296.717z"/>
<path class="l5" d="M200.33 288.985L202.263 288.985L202.263 290.918L200.33 290.918L200.33 288.985z"/>
<path class="l5" d="M200.33 296.717L202.263 296.717L202.263 298.65L200.33 298.65L200.33 296.717z"/>
<path class="l5" d="M84.3401 304.45L86.2733 304.45L86.2733 306.383L84.3401 306.383L84.3401 304.45z"/>
<path class="l5" d="M84.3401 312.183L86.2733 312.183L86.2733 314.116L84.3401 314.116L84.3401 312.183z"/>
<path class="l5" d="M84.3401 250.321L86.2733 250.321L86.2733 252.255L84.3401 252.255L84.3401 250.321z"/>
<path class="l5" d="M84.3401 258.054L86.2733 258.054L86.2733 259.987L84.3401 259.987L84.3401 258.054z"/>
<path class="l5" d="M200.33 250.321L202.263 250.321L202.263 252.255L200.33 252.255L200.33 250.321z"/>
<path class="l5" d="M200.33 258.054L202.263 258.054L202.263 259.987L200.33 259.987L200.33 258.054z"/>
<path class="l5" d="M84.3401 265.787L86.2733 265.787L86.2733 267.72L84.3401 267.72L84.3401 265.787z"/>
<path class="l5" d="M84.3401 273.519L86.2733 273.519L86.2733 275.452L84.3401 275.452L84.3401 273.519z"/>
<path class="l5" d="M84.3401 211.658L86.2733 211.658L86.2733 213.591L84.3401 213.591L84.3401 211.658z"/>
<path class="l5" d="M84.3401 219.391L86.2733 219.391L86.2733 221.324L84.3401 221.324L84.3401 219.391z"/>
<path class="l5" d="M200.33 211.658L202.263 211.658L202.263 213.591L200.33 213.591L200.33 211.658z"/>
<path class="l5" d="M200.33 219.391L202.263 219.391L202.263 221.324L200.33 221.324L200.33 219.391z"/>
<path class="l5" d="M84.3401 227.123L86.2733 227.123L86.2733 229.057L84.3401 229.057L84.3401 227.123z"/>
<path class="l5" d="M84.3401 234.856L86.2733 234.856L86.2733 236.789L84.3401 236.789L84.3401 234.856z"/>
<path class="l5" d="M84.3401 172.995L86.2733 172.995L86.2733 174.928L84.3401 174.928L84.3401 172.995z"/>
<path class="l5" d="M84.3401 180.728L86.2733 180.728L86.2733 182.661L84.3401 182.661L84.3401 180.728z"/>
<path class="l5" d="M200.33 172.995L202.263 172.995L202.263 174.928L200.33 174.928L200.33 172.995z"/>
<path class="l5" d="M200.33 180.728L202.263 180.728L202.263 182.661L200.33 182.661L200.33 180.728z"/>
<path class="l5" d="M84.3401 188.46L86.2733 188.46L86.2733 190.393L84.3401 190.393L84.3401 188.46z"/>
<path class="l5" d="M84.3401 196.193L86.2733 196.193L86.2733 198.126L84.3401 198.126L84.3401 196.193z"/>
<path class="l5" d="M84.3401 134.332L86.2733 134.332L86.2733 136.265L84.3401 136.265L84.3401 134.332z"/>
<path class="l5" d="M84.3401 142.064L86.2733 142.064L86.2733 143.997L84.3401 143.997L84.3401 142.064z"/>
<path class="l5" d="M200.33 134.332L202.263 134.332L202.263 136.265L200.33 136.265L200.33 134.332z"/>
<path class="l5" d="M200.33 142.064L202.263 142.064L202.263 143.997L200.33 143.997L200.33 142.064z"/>
<path class="l5" d="M84.3401 149.797L86.2733 149.797L86.2733 151.73L84.3401 151.73L84.3401 149.797z"/>
<path class="l5" d="M84.3401 157.53L86.2733 157.53L86.2733 159.463L84.3401 159.463L84.3401 157.53z"/>
<path class="l5" d="M231.744 134.815L232.71 134.815L232.71 135.782L231.744 135.782L231.744 134.815z"/>
<path class="l5" d="M231.744 142.548L232.71 142.548L232.71 143.514L231.744 143.514L231.744 142.548z"/>
<path class="l5" d="M285.872 397.725L286.839 397.725L286.839 398.692L285.872 398.692L285.872 397.725z"/>
<path class="l5" d="M285.872 413.19L286.839 413.19L286.839 414.157L285.872 414.157L285.872 413.19z"/>
<path class="l5" d="M285.872 428.656L286.839 428.656L286.839 429.622L285.872 429.622L285.872 428.656z"/>
<path class="l5" d="M231.744 173.478L232.71 173.478L232.71 174.445L231.744 174.445L231.744 173.478z"/>
<path class="l5" d="M231.744 181.211L232.71 181.211L232.71 182.177L231.744 182.177L231.744 181.211z"/>
<path class="l5" d="M231.744 212.141L232.71 212.141L232.71 213.108L231.744 213.108L231.744 212.141z"/>
<path class="l5" d="M231.744 219.874L232.71 219.874L232.71 220.841L231.744 220.841L231.744 219.874z"/>
<path class="l5" d="M231.744 250.805L232.71 250.805L232.71 251.771L231.744 251.771L231.744 250.805z"/>
<path class="l5" d="M231.744 258.537L232.71 258.537L232.71 259.504L231.744 259.504L231.744 258.537z"/>
<path class="l5" d="M231.744 289.468L232.71 289.468L232.71 290.434L231.744 290.434L231.744 289.468z"/>
<path class="l5" d="M231.744 297.201L232.71 297.201L232.71 298.167L231.744 298.167L231.744 297.201z"/>
<path class="l5" d="M231.744 328.131L232.71 328.131L232.71 329.098L231.744 329.098L231.744 328.131z"/>
<path class="l5" d="M231.744 335.864L232.71 335.864L232.71 336.83L231.744 336.83L231.744 335.864z"/>
<path class="l5" d="M231.744 366.794L232.71 366.794L232.71 367.761L231.744 367.761L231.744 366.794z"/>
<path class="l5" d="M231.744 374.527L232.71 374.527L232.71 375.494L231.744 375.494L231.744 374.527z"/>
<path class="l5" d="M231.744 405.458L232.71 405.458L232.71 406.424L231.744 406.424L231.744 405.458z"/>
<path class="l5" d="M231.744 413.19L232.71 413.19L232.71 414.157L231.744 414.157L231.744 413.19z"/>
<path class="l5" d="M33.1113 150.764L35.0445 150.764"/>
<path class="l5" d="M33.1113 150.764L31.6615 148.83L28.2784 148.83L29.7283 150.764L28.2784 152.697L31.6615 152.697L33.1113 150.764"/>
<path class="l5" d="M34.5612 150.28L35.5278 150.28L35.5278 151.247L34.5612 151.247L34.5612 150.28z"/>
<path class="l5" d="M33.1113 189.427L35.0445 189.427"/>
<path class="l5" d="M33.1113 189.427L31.6615 187.494L28.2784 187.494L29.7283 189.427L28.2784 191.36L31.6615 191.36L33.1113 189.427"/>
<path class="l5" d="M34.5612 188.943L35.5278 188.943L35.5278 189.91L34.5612 189.91L34.5612 188.943z"/>
<path class="l5" d="M33.1113 228.09L35.0445 228.09"/>
<path class="l5" d="M33.1113 228.09L31.6615 226.157L28.2784 226.157L29.7283 228.09L28.2784 230.023L31.6615 230.023L33.1113 228.09"/>
<path class="l5" d="M34.5612 227.607L35.5278 227.607L35.5278 228.573L34.5612 228.573L34.5612 227.607z"/>
<path class="l5" d="M33.1113 266.753L35.0445 266.753"/>
<path class="l5" d="M33.1113 266.753L31.6615 264.82L28.2784 264.82L29.7283 266.753L28.2784 268.686L31.6615 268.686L33.1113 266.753"/>
<path class="l5" d="M34.5612 266.27L35.5278 266.27L35.5278 267.237L34.5612 267.237L34.5612 266.27z"/>
<path class="l5" d="M33.1113 305.416L35.0445 305.416"/>
<path class="l5" d="M33.1113 305.416L31.6615 303.483L28.2784 303.483L29.7283 305.416L28.2784 307.35L31.6615 307.35L33.1113 305.416"/>
<path class="l5" d="M34.5612 304.933L35.5278 304.933L35.5278 305.9L34.5612 305.9L34.5612 304.933z"/>
<path class="l5" d="M33.1113 344.08L35.0445 344.08"/>
<path class="l5" d="M33.1113 344.08L31.6615 342.147L28.2784 342.147L29.7283 344.08L28.2784 346.013L31.6615 346.013L33.1113 344.08"/>
<path class="l5" d="M34.5612 343.596L35.5278 343.596L35.5278 344.563L34.5612 344.563L34.5612 343.596z"/>
<path class="l5" d="M33.1113 382.743L35.0445 382.743"/>
<path class="l5" d="M33.1113 382.743L31.6615 380.81L28.2784 380.81L29.7283 382.743L28.2784 384.676L31.6615 384.676L33.1113 382.743"/>
<path class="l5" d="M34.5612 382.26L35.5278 382.26L35.5278 383.226L34.5612 383.226L34.5612 382.26z"/>
<path class="l5" d="M33.1113 421.406L35.0445 421.406"/>
<path class="l5" d="M33.1113 421.406L31.6615 419.473L28.2784 419.473L29.7283 421.406L28.2784 423.339L31.6615 423.339L33.1113 421.406"/>
<path class="l5" d="M34.5612 420.923L35.5278 420.923L35.5278 421.889L34.5612 421.889L34.5612 420.923z"/>
<path class="l5" d="M30.6949 134.815L31.6615 134.815L31.6615 135.782L30.6949 135.782L30.6949 134.815z"/>
<path class="l5" d="M37.7026 96.635L38.9108 96.635"/>
<path class="l5" d="M33.5946 98.5682L32.1447 96.635L33.5946 94.7019L36.2527 94.7019L37.7026 96.635L36.2527 98.5682L33.5946 98.5682"/>
<path class="l5" d="M38.4275 96.1517L39.3941 96.1517L39.3941 97.1183L38.4275 97.1183L38.4275 96.1517z"/>
<path class="l5" d="M37.7026 108.234L38.9108 108.234"/>
<path class="l5" d="M33.5946 110.167L32.1447 108.234L33.5946 106.301L36.2527 106.301L37.7026 108.234L36.2527 110.167L33.5946 110.167"/>
<path class="l5" d="M38.4275 107.751L39.3941 107.751L39.3941 108.717L38.4275 108.717L38.4275 107.751z"/>
<path class="l5" d="M800.093 297.201L801.06 297.201L801.06 298.167L800.093 298.167L800.093 297.201z"/>
<path class="l5" d="M644.957 381.776L646.89 381.776L646.89 383.71L644.957 383.71L644.957 381.776z"/>
<path class="l5" d="M644.957 389.509L646.89 389.509L646.89 391.442L644.957 391.442L644.957 389.509z"/>
<path class="l5" d="M760.947 381.776L762.88 381.776L762.88 383.71L760.947 383.71L760.947 381.776z"/>
<path class="l5" d="M644.957 397.242L646.89 397.242L646.89 399.175L644.957 399.175L644.957 397.242z"/>
<path class="l5" d="M644.957 404.974L646.89 404.974L646.89 406.907L644.957 406.907L644.957 404.974z"/>
<path class="l5" d="M644.957 412.707L646.89 412.707L646.89 414.64L644.957 414.64L644.957 412.707z"/>
<path class="l5" d="M436.175 532.563L438.109 532.563L438.109 534.496L436.175 534.496L436.175 532.563z"/>
<path class="l5" d="M552.165 532.563L554.098 532.563L554.098 534.496L552.165 534.496L552.165 532.563z"/>
<path class="l5" d="M552.165 540.296L554.098 540.296L554.098 542.229L552.165 542.229L552.165 540.296z"/>
<path class="l5" d="M552.165 548.028L554.098 548.028L554.098 549.961L552.165 549.961L552.165 548.028z"/>
<path class="l5" d="M436.175 555.761L438.109 555.761L438.109 557.694L436.175 557.694L436.175 555.761z"/>
<path class="l5" d="M552.165 555.761L554.098 555.761L554.098 557.694L552.165 557.694L552.165 555.761z"/>
<path class="l5" d="M436.175 578.959L438.109 578.959L438.109 580.892L436.175 580.892L436.175 578.959z"/>
<path class="l5" d="M552.165 578.959L554.098 578.959L554.098 580.892L552.165 580.892L552.165 578.959z"/>
<path class="l5" d="M552.165 586.691L554.098 586.691L554.098 588.625L552.165 588.625L552.165 586.691z"/>
<path class="l5" d="M552.165 594.424L554.098 594.424L554.098 596.357L552.165 596.357L552.165 594.424z"/>
<path class="l5" d="M436.175 602.157L438.109 602.157L438.109 604.09L436.175 604.09L436.175 602.157z"/>
<path class="l5" d="M552.165 602.157L554.098 602.157L554.098 604.09L552.165 604.09L552.165 602.157z"/>
<path class="l5" d="M436.175 180.728L438.109 180.728L438.109 182.661L436.175 182.661L436.175 180.728z"/>
<path class="l5" d="M552.165 180.728L554.098 180.728L554.098 182.661L552.165 182.661L552.165 180.728z"/>
<path class="l5" d="M552.165 188.46L554.098 188.46L554.098 190.393L552.165 190.393L552.165 188.46z"/>
<path class="l5" d="M552.165 196.193L554.098 196.193L554.098 198.126L552.165 198.126L552.165 196.193z"/>
<path class="l5" d="M436.175 203.925L438.109 203.925L438.109 205.859L436.175 205.859L436.175 203.925z"/>
<path class="l5" d="M552.165 203.925L554.098 203.925L554.098 205.859L552.165 205.859L552.165 203.925z"/>
<path class="l5" d="M436.175 142.064L438.109 142.064L438.109 143.997L436.175 143.997L436.175 142.064z"/>
<path class="l5" d="M552.165 142.064L554.098 142.064L554.098 143.997L552.165 143.997L552.165 142.064z"/>
<path class="l5" d="M552.165 149.797L554.098 149.797L554.098 151.73L552.165 151.73L552.165 149.797z"/>
<path class="l5" d="M552.165 157.53L554.098 157.53L554.098 159.463L552.165 159.463L552.165 157.53z"/>
<path class="l5" d="M436.175 165.262L438.109 165.262L438.109 167.195L436.175 167.195L436.175 165.262z"/>
<path class="l5" d="M552.165 165.262L554.098 165.262L554.098 167.195L552.165 167.195L552.165 165.262z"/>
<path class="l5" d="M831.024 347.463L831.99 347.463L831.99 348.429L831.024 348.429L831.024 347.463z"/>
<path class="l5" d="M826.674 288.985L828.607 288.985L828.607 290.918L826.674 290.918L826.674 288.985z"/>
<path class="l5" d="M942.664 288.985L944.597 288.985L944.597 290.918L942.664 290.918L942.664 288.985z"/>
<path class="l5" d="M826.674 304.45L828.607 304.45L828.607 306.383L826.674 306.383L826.674 304.45z"/>
<path class="l5" d="M826.674 312.183L828.607 312.183L828.607 314.116L826.674 314.116L826.674 312.183z"/>
<path class="l5" d="M826.674 296.717L828.607 296.717L828.607 298.65L826.674 298.65L826.674 296.717z"/>
<path class="l1" d="M553.132 231.956L587.929 231.956"/>
<path class="l1" d="M553.132 382.743L587.929 382.743"/>
<path class="l1" d="M553.132 274.486L564.731 274.486"/>
<path class="l1" d="M553.132 282.219L568.597 282.219"/>
<path class="l1" d="M572.463 197.159L572.463 282.219"/>
<path class="l1" d="M553.132 197.159L568.597 197.159"/>
<path class="l1" d="M564.731 204.892L564.731 274.486"/>
<path class="l1" d="M553.132 204.892L564.731 204.892"/>
<path class="l1" d="M568.597 197.159L595.661 197.159"/>
<path class="l1" d="M553.132 506.465L568.597 506.465"/>
<path class="l1" d="M568.597 506.465L568.597 533.53"/>
<path class="l1" d="M553.132 533.53L568.597 533.53"/>
<path class="l1" d="M553.132 498.733L576.33 498.733"/>
<path class="l1" d="M576.33 498.733L576.33 541.262"/>
<path class="l1" d="M553.132 541.262L576.33 541.262"/>
<path class="l1" d="M576.33 498.733L599.528 498.733"/>
<path class="l1" d="M553.132 355.679L564.731 355.679"/>
<path class="l1" d="M564.731 355.679L564.731 425.272"/>
<path class="l1" d="M553.132 425.272L564.731 425.272"/>
<path class="l1" d="M553.132 347.946L572.463 347.946"/>
<path class="l1" d="M572.463 347.946L572.463 433.005"/>
<path class="l1" d="M553.132 433.005L572.463 433.005"/>
<path class="l1" d="M595.661 212.625L595.661 320.882"/>
<path class="l1" d="M587.929 313.149L618.859 313.149"/>
<path class="l1" d="M595.661 320.882L618.859 320.882"/>
<path class="l1" d="M603.394 305.416L618.859 305.416"/>
<path class="l1" d="M603.394 220.357L603.394 305.416"/>
<path class="l1" d="M417.81 112.1L417.81 533.53"/>
<path class="l1" d="M305.687 100.501L410.078 100.501"/>
<path class="l1" d="M410.078 363.411L437.142 363.411"/>
<path class="l1" d="M410.078 514.198L437.142 514.198"/>
<path class="l1" d="M618.859 305.416L645.923 305.416"/>
<path class="l1" d="M618.859 313.149L645.923 313.149"/>
<path class="l1" d="M618.859 320.882L645.923 320.882"/>
<path class="l1" d="M638.191 328.614L645.923 328.614"/>
<path class="l1" d="M638.191 100.501L638.191 328.614"/>
<path class="l1" d="M410.078 100.501L638.191 100.501"/>
<path class="l1" d="M417.81 112.1L630.458 112.1"/>
<path class="l1" d="M630.458 112.1L630.458 297.684"/>
<path class="l1" d="M630.458 297.684L645.923 297.684"/>
<path class="l1" d="M305.687 112.1L417.81 112.1"/>
<path class="l1" d="M417.81 231.956L437.142 231.956"/>
<path class="l1" d="M417.81 382.743L437.142 382.743"/>
<path class="l1" d="M402.345 436.871L437.142 436.871"/>
<path class="l1" d="M394.613 429.139L437.142 429.139"/>
<path class="l1" d="M386.88 421.406L437.142 421.406"/>
<path class="l1" d="M379.147 413.674L437.142 413.674"/>
<path class="l1" d="M371.415 405.941L437.142 405.941"/>
<path class="l1" d="M363.682 398.208L437.142 398.208"/>
<path class="l1" d="M402.345 286.085L437.142 286.085"/>
<path class="l1" d="M394.613 278.352L437.142 278.352"/>
<path class="l1" d="M386.88 270.62L437.142 270.62"/>
<path class="l1" d="M379.147 262.887L437.142 262.887"/>
<path class="l1" d="M371.415 255.154L437.142 255.154"/>
<path class="l1" d="M363.682 247.422L437.142 247.422"/>
<path class="l1" d="M286.355 212.625L595.661 212.625"/>
<path class="l1" d="M286.355 220.357L603.394 220.357"/>
<path class="l1" d="M355.949 347.946L437.142 347.946"/>
<path class="l1" d="M355.949 347.946L355.949 498.733"/>
<path class="l1" d="M355.949 498.733L437.142 498.733"/>
<path class="l1" d="M348.217 491L437.142 491"/>
<path class="l1" d="M348.217 340.213L348.217 491"/>
<path class="l1" d="M348.217 340.213L437.142 340.213"/>
<path class="l1" d="M340.484 332.481L437.142 332.481"/>
<path class="l1" d="M340.484 332.481L340.484 483.267"/>
<path class="l1" d="M340.484 483.267L437.142 483.267"/>
<path class="l1" d="M332.751 324.748L437.142 324.748"/>
<path class="l1" d="M332.751 324.748L332.751 475.535"/>
<path class="l1" d="M332.751 475.535L437.142 475.535"/>
<path class="l1" d="M325.019 317.015L437.142 317.015"/>
<path class="l1" d="M325.019 317.015L325.019 467.802"/>
<path class="l1" d="M325.019 467.802L437.142 467.802"/>
<path class="l1" d="M317.286 309.283L437.142 309.283"/>
<path class="l1" d="M317.286 460.069L437.142 460.069"/>
<path class="l1" d="M317.286 309.283L317.286 460.069"/>
<path class="l1" d="M309.553 452.337L437.142 452.337"/>
<path class="l1" d="M309.553 301.55L309.553 452.337"/>
<path class="l1" d="M309.553 301.55L437.142 301.55"/>
<path class="l1" d="M301.821 293.817L437.142 293.817"/>
<path class="l1" d="M301.821 444.604L437.142 444.604"/>
<path class="l1" d="M301.821 293.817L301.821 444.604"/>
<path class="l1" d="M286.355 293.817L301.821 293.817"/>
<path class="l1" d="M286.355 301.55L309.553 301.55"/>
<path class="l1" d="M286.355 309.283L317.286 309.283"/>
<path class="l1" d="M286.355 317.015L325.019 317.015"/>
<path class="l1" d="M286.355 324.748L332.751 324.748"/>
<path class="l1" d="M286.355 332.481L340.484 332.481"/>
<path class="l1" d="M286.355 340.213L348.217 340.213"/>
<path class="l1" d="M286.355 347.946L355.949 347.946"/>
<path class="l1" d="M761.913 297.684L827.641 297.684"/>
<path class="l1" d="M943.63 289.951L966.828 289.951"/>
<path class="l1" d="M788.977 305.416L827.641 305.416"/>
<path class="l1" d="M788.977 305.416L788.977 359.545"/>
<path class="l1" d="M761.913 359.545L788.977 359.545"/>
<path class="l1" d="M638.191 100.501L812.175 100.501"/>
<path class="l1" d="M812.175 100.501L812.175 313.149"/>
<path class="l1" d="M812.175 313.149L827.641 313.149"/>
<path class="l1" d="M800.576 289.951L827.641 289.951"/>
<path class="l1" d="M800.576 112.1L800.576 289.951"/>
<path class="l1" d="M630.458 112.1L800.576 112.1"/>
<path class="l1" d="M201.296 135.298L232.227 135.298"/>
<path class="l1" d="M201.296 143.031L232.227 143.031"/>
<path class="l1" d="M201.296 173.961L232.227 173.961"/>
<path class="l1" d="M201.296 181.694L232.227 181.694"/>
<path class="l1" d="M201.296 212.625L232.227 212.625"/>
<path class="l1" d="M201.296 220.357L232.227 220.357"/>
<path class="l1" d="M201.296 251.288L232.227 251.288"/>
<path class="l1" d="M201.296 259.021L232.227 259.021"/>
<path class="l1" d="M201.296 289.951L232.227 289.951"/>
<path class="l1" d="M201.296 297.684L232.227 297.684"/>
<path class="l1" d="M201.296 328.614L232.227 328.614"/>
<path class="l1" d="M201.296 336.347L232.227 336.347"/>
<path class="l1" d="M201.296 367.278L232.227 367.278"/>
<path class="l1" d="M201.296 375.01L232.227 375.01"/>
<path class="l1" d="M201.296 405.941L232.227 405.941"/>
<path class="l1" d="M201.296 413.674L232.227 413.674"/>
<path class="l1" d="M58.2424 135.298L85.3067 135.298"/>
<path class="l1" d="M58.2424 135.298L58.2424 405.941"/>
<path class="l1" d="M58.2424 405.941L85.3067 405.941"/>
<path class="l1" d="M58.2424 367.278L85.3067 367.278"/>
<path class="l1" d="M58.2424 328.614L85.3067 328.614"/>
<path class="l1" d="M58.2424 289.951L85.3067 289.951"/>
<path class="l1" d="M58.2424 251.288L85.3067 251.288"/>
<path class="l1" d="M58.2424 212.625L85.3067 212.625"/>
<path class="l1" d="M58.2424 173.961L85.3067 173.961"/>
<path class="l1" d="M65.9751 158.496L85.3067 158.496"/>
<path class="l1" d="M65.9751 158.496L65.9751 429.139"/>
<path class="l1" d="M65.9751 429.139L85.3067 429.139"/>
<path class="l1" d="M65.9751 390.476L85.3067 390.476"/>
<path class="l1" d="M65.9751 351.812L85.3067 351.812"/>
<path class="l1" d="M65.9751 313.149L85.3067 313.149"/>
<path class="l1" d="M65.9751 274.486L85.3067 274.486"/>
<path class="l1" d="M65.9751 235.823L85.3067 235.823"/>
<path class="l1" d="M65.9751 197.159L85.3067 197.159"/>
<path class="l1" d="M73.7077 143.031L85.3067 143.031"/>
<path class="l1" d="M73.7077 143.031L73.7077 413.674"/>
<path class="l1" d="M73.7077 413.674L85.3067 413.674"/>
<path class="l1" d="M73.7077 375.01L85.3067 375.01"/>
<path class="l1" d="M73.7077 336.347L85.3067 336.347"/>
<path class="l1" d="M73.7077 297.684L85.3067 297.684"/>
<path class="l1" d="M73.7077 259.021L85.3067 259.021"/>
<path class="l1" d="M73.7077 220.357L85.3067 220.357"/>
<path class="l1" d="M73.7077 181.694L85.3067 181.694"/>
<path class="l1" d="M35.0445 421.406L85.3067 421.406"/>
<path class="l1" d="M35.0445 382.743L85.3067 382.743"/>
<path class="l1" d="M35.0445 344.08L85.3067 344.08"/>
<path class="l1" d="M35.0445 305.416L85.3067 305.416"/>
<path class="l1" d="M35.0445 266.753L85.3067 266.753"/>
<path class="l1" d="M35.0445 228.09L85.3067 228.09"/>
<path class="l1" d="M35.0445 189.427L85.3067 189.427"/>
<path class="l1" d="M35.0445 150.764L85.3067 150.764"/>
<path class="l1" d="M31.1782 135.298L58.2424 135.298"/>
<path class="l1" d="M38.9108 108.234L65.9751 108.234"/>
<path class="l1" d="M65.9751 108.234L65.9751 158.496"/>
<path class="l1" d="M73.7077 96.635L73.7077 143.031"/>
<path class="l1" d="M38.9108 96.635L73.7077 96.635"/>
<path class="l1" d="M630.458 297.684L630.458 382.743"/>
<path class="l1" d="M630.458 382.743L645.923 382.743"/>
<path class="l1" d="M638.191 328.614L638.191 413.674"/>
<path class="l1" d="M638.191 413.674L645.923 413.674"/>
<path class="l1" d="M603.394 305.416L603.394 405.941"/>
<path class="l1" d="M603.394 405.941L645.923 405.941"/>
<path class="l1" d="M595.661 320.882L595.661 390.476"/>
<path class="l1" d="M595.661 390.476L645.923 390.476"/>
<path class="l1" d="M804.443 297.684L804.443 382.743"/>
<path class="l1" d="M761.913 382.743L804.443 382.743"/>
<path class="l1" d="M587.929 398.208L645.923 398.208"/>
<path class="l1" d="M587.929 382.743L587.929 398.208"/>
<path class="l1" d="M587.929 231.956L587.929 313.149"/>
<path class="l1" d="M553.132 548.995L576.33 548.995"/>
<path class="l1" d="M553.132 556.727L568.597 556.727"/>
<path class="l1" d="M568.597 556.727L568.597 579.925"/>
<path class="l1" d="M553.132 579.925L568.597 579.925"/>
<path class="l1" d="M576.33 548.995L576.33 587.658"/>
<path class="l1" d="M553.132 587.658L576.33 587.658"/>
<path class="l1" d="M553.132 595.391L576.33 595.391"/>
<path class="l1" d="M576.33 595.391L576.33 603.123"/>
<path class="l1" d="M553.132 603.123L576.33 603.123"/>
<path class="l1" d="M568.597 282.219L572.463 282.219"/>
<path class="l1" d="M553.132 181.694L564.731 181.694"/>
<path class="l1" d="M564.731 166.229L564.731 181.694"/>
<path class="l1" d="M553.132 166.229L564.731 166.229"/>
<path class="l1" d="M553.132 158.496L572.463 158.496"/>
<path class="l1" d="M572.463 158.496L572.463 189.427"/>
<path class="l1" d="M553.132 189.427L572.463 189.427"/>
<path class="l1" d="M553.132 150.764L572.463 150.764"/>
<path class="l1" d="M572.463 143.031L572.463 150.764"/>
<path class="l1" d="M553.132 143.031L572.463 143.031"/>
<path class="l1" d="M402.345 286.085L402.345 436.871"/>
<path class="l1" d="M394.613 278.352L394.613 429.139"/>
<path class="l1" d="M386.88 270.62L386.88 421.406"/>
<path class="l1" d="M379.147 262.887L379.147 413.674"/>
<path class="l1" d="M371.415 255.154L371.415 405.941"/>
<path class="l1" d="M363.682 247.422L363.682 398.208"/>
<path class="l1" d="M286.355 398.208L363.682 398.208"/>
<path class="l1" d="M286.355 405.941L371.415 405.941"/>
<path class="l1" d="M286.355 413.674L379.147 413.674"/>
<path class="l1" d="M286.355 421.406L386.88 421.406"/>
<path class="l1" d="M286.355 429.139L394.613 429.139"/>
<path class="l1" d="M286.355 436.871L402.345 436.871"/>
<path class="l1" d="M410.078 204.892L437.142 204.892"/>
<path class="l1" d="M410.078 603.123L437.142 603.123"/>
<path class="l1" d="M410.078 556.727L437.142 556.727"/>
<path class="l1" d="M417.81 533.53L437.142 533.53"/>
<path class="l1" d="M417.81 533.53L417.81 579.925"/>
<path class="l1" d="M417.81 579.925L437.142 579.925"/>
<path class="l1" d="M417.81 181.694L437.142 181.694"/>
<path class="l1" d="M417.81 143.031L437.142 143.031"/>
<path class="l1" d="M410.078 166.229L437.142 166.229"/>
<path class="l1" d="M410.078 100.501L410.078 603.123"/>
<path class="l1" d="M812.175 320.882L827.641 320.882"/>
<path class="l1" d="M812.175 320.882L812.175 347.946"/>
<path class="l1" d="M812.175 347.946L831.507 347.946"/>
<circle class="l1" cx="73.7077" cy="143.031" r="1.43054"/>
<circle class="l1" cx="65.9751" cy="158.496" r="1.43054"/>
<circle class="l1" cx="58.2424" cy="135.298" r="1.43054"/>
<circle class="l1" cx="73.7077" cy="181.694" r="1.43054"/>
<circle class="l1" cx="73.7077" cy="220.357" r="1.43054"/>
<circle class="l1" cx="73.7077" cy="259.021" r="1.43054"/>
<circle class="l1" cx="73.7077" cy="143.031" r="1.43054"/>
<circle class="l1" cx="73.7077" cy="143.031" r="1.43054"/>
<circle class="l1" cx="65.9751" cy="197.159" r="1.43054"/>
<circle class="l1" cx="65.9751" cy="235.823" r="1.43054"/>
<circle class="l1" cx="65.9751" cy="158.496" r="1.43054"/>
<circle class="l1" cx="65.9751" cy="158.496" r="1.43054"/>
<circle class="l1" cx="58.2424" cy="173.961" r="1.43054"/>
<circle class="l1" cx="58.2424" cy="212.625" r="1.43054"/>
<circle class="l1" cx="58.2424" cy="251.288" r="1.43054"/>
<circle class="l1" cx="58.2424" cy="135.298" r="1.43054"/>
<circle class="l1" cx="58.2424" cy="135.298" r="1.43054"/>
<circle class="l1" cx="73.7077" cy="297.684" r="1.43054"/>
<circle class="l1" cx="73.7077" cy="336.347" r="1.43054"/>
<circle class="l1" cx="73.7077" cy="375.01" r="1.43054"/>
<circle class="l1" cx="65.9751" cy="274.486" r="1.43054"/>
<circle class="l1" cx="65.9751" cy="313.149" r="1.43054"/>
<circle class="l1" cx="65.9751" cy="351.812" r="1.43054"/>
<circle class="l1" cx="65.9751" cy="390.476" r="1.43054"/>
<circle class="l1" cx="58.2424" cy="289.951" r="1.43054"/>
<circle class="l1" cx="58.2424" cy="328.614" r="1.43054"/>
<circle class="l1" cx="58.2424" cy="367.278" r="1.43054"/>
<circle class="l1" cx="410.078" cy="100.501" r="1.43054"/>
<circle class="l1" cx="417.81" cy="112.1" r="1.43054"/>
<circle class="l1" cx="417.81" cy="112.1" r="1.43054"/>
<circle class="l1" cx="630.458" cy="112.1" r="1.43054"/>
<circle class="l1" cx="410.078" cy="100.501" r="1.43054"/>
<circle class="l1" cx="638.191" cy="100.501" r="1.43054"/>
<circle class="l1" cx="410.078" cy="100.501" r="1.43054"/>
<circle class="l1" cx="417.81" cy="112.1" r="1.43054"/>
<circle class="l1" cx="417.81" cy="533.53" r="1.43054"/>
<circle class="l1" cx="410.078" cy="166.229" r="1.43054"/>
<circle class="l1" cx="417.81" cy="143.031" r="1.43054"/>
<circle class="l1" cx="417.81" cy="181.694" r="1.43054"/>
<circle class="l1" cx="410.078" cy="204.892" r="1.43054"/>
<circle class="l1" cx="363.682" cy="398.208" r="1.43054"/>
<circle class="l1" cx="371.415" cy="405.941" r="1.43054"/>
<circle class="l1" cx="379.147" cy="413.674" r="1.43054"/>
<circle class="l1" cx="417.81" cy="231.956" r="1.43054"/>
<circle class="l1" cx="386.88" cy="421.406" r="1.43054"/>
<circle class="l1" cx="379.147" cy="413.674" r="1.43054"/>
<circle class="l1" cx="371.415" cy="405.941" r="1.43054"/>
<circle class="l1" cx="363.682" cy="398.208" r="1.43054"/>
<circle class="l1" cx="386.88" cy="421.406" r="1.43054"/>
<circle class="l1" cx="394.613" cy="429.139" r="1.43054"/>
<circle class="l1" cx="402.345" cy="436.871" r="1.43054"/>
<circle class="l1" cx="355.949" cy="347.946" r="1.43054"/>
<circle class="l1" cx="348.217" cy="340.213" r="1.43054"/>
<circle class="l1" cx="340.484" cy="332.481" r="1.43054"/>
<circle class="l1" cx="332.751" cy="324.748" r="1.43054"/>
<circle class="l1" cx="325.019" cy="317.015" r="1.43054"/>
<circle class="l1" cx="317.286" cy="309.283" r="1.43054"/>
<circle class="l1" cx="309.553" cy="301.55" r="1.43054"/>
<circle class="l1" cx="301.821" cy="293.817" r="1.43054"/>
<circle class="l1" cx="301.821" cy="293.817" r="1.43054"/>
<circle class="l1" cx="301.821" cy="293.817" r="1.43054"/>
<circle class="l1" cx="309.553" cy="301.55" r="1.43054"/>
<circle class="l1" cx="309.553" cy="301.55" r="1.43054"/>
<circle class="l1" cx="317.286" cy="309.283" r="1.43054"/>
<circle class="l1" cx="317.286" cy="309.283" r="1.43054"/>
<circle class="l1" cx="325.019" cy="317.015" r="1.43054"/>
<circle class="l1" cx="325.019" cy="317.015" r="1.43054"/>
<circle class="l1" cx="332.751" cy="324.748" r="1.43054"/>
<circle class="l1" cx="332.751" cy="324.748" r="1.43054"/>
<circle class="l1" cx="340.484" cy="332.481" r="1.43054"/>
<circle class="l1" cx="340.484" cy="332.481" r="1.43054"/>
<circle class="l1" cx="348.217" cy="340.213" r="1.43054"/>
<circle class="l1" cx="348.217" cy="340.213" r="1.43054"/>
<circle class="l1" cx="355.949" cy="347.946" r="1.43054"/>
<circle class="l1" cx="355.949" cy="347.946" r="1.43054"/>
<circle class="l1" cx="363.682" cy="398.208" r="1.43054"/>
<circle class="l1" cx="371.415" cy="405.941" r="1.43054"/>
<circle class="l1" cx="379.147" cy="413.674" r="1.43054"/>
<circle class="l1" cx="386.88" cy="421.406" r="1.43054"/>
<circle class="l1" cx="417.81" cy="382.743" r="1.43054"/>
<circle class="l1" cx="410.078" cy="363.411" r="1.43054"/>
<circle class="l1" cx="417.81" cy="533.53" r="1.43054"/>
<circle class="l1" cx="417.81" cy="533.53" r="1.43054"/>
<circle class="l1" cx="410.078" cy="556.727" r="1.43054"/>
<circle class="l1" cx="402.345" cy="436.871" r="1.43054"/>
<circle class="l1" cx="394.613" cy="429.139" r="1.43054"/>
<circle class="l1" cx="394.613" cy="429.139" r="1.43054"/>
<circle class="l1" cx="402.345" cy="436.871" r="1.43054"/>
<circle class="l1" cx="410.078" cy="514.198" r="1.43054"/>
<circle class="l1" cx="572.463" cy="197.159" r="1.43054"/>
<circle class="l1" cx="576.33" cy="498.733" r="1.43054"/>
<circle class="l1" cx="576.33" cy="498.733" r="1.43054"/>
<circle class="l1" cx="576.33" cy="498.733" r="1.43054"/>
<circle class="l1" cx="630.458" cy="112.1" r="1.43054"/>
<circle class="l1" cx="638.191" cy="100.501" r="1.43054"/>
<circle class="l1" cx="630.458" cy="112.1" r="1.43054"/>
<circle class="l1" cx="630.458" cy="297.684" r="1.43054"/>
<circle class="l1" cx="638.191" cy="100.501" r="1.43054"/>
<circle class="l1" cx="638.191" cy="328.614" r="1.43054"/>
<circle class="l1" cx="603.394" cy="305.416" r="1.43054"/>
<circle class="l1" cx="595.661" cy="320.882" r="1.43054"/>
<circle class="l1" cx="595.661" cy="320.882" r="1.43054"/>
<circle class="l1" cx="603.394" cy="305.416" r="1.43054"/>
<circle class="l1" cx="638.191" cy="328.614" r="1.43054"/>
<circle class="l1" cx="630.458" cy="297.684" r="1.43054"/>
<circle class="l1" cx="630.458" cy="297.684" r="1.43054"/>
<circle class="l1" cx="638.191" cy="328.614" r="1.43054"/>
<circle class="l1" cx="603.394" cy="305.416" r="1.43054"/>
<circle class="l1" cx="595.661" cy="320.882" r="1.43054"/>
<circle class="l1" cx="804.443" cy="297.684" r="1.43054"/>
</svg>
